<svg width="292" height="272" viewBox="0 0 292 272" fill="none" xmlns="http://www.w3.org/2000/svg">
<path fill-rule="evenodd" clip-rule="evenodd" d="M124.223 85.559C124.288 86.8613 123.806 88.1123 122.949 88.9903C122.748 91.0243 121.02 92.6002 118.946 92.8139C115.71 93.1473 112.536 93.9158 109.521 95.1014C105.272 96.7728 101.428 99.2387 98.22 102.351C95.0121 105.463 92.5066 109.157 90.8541 113.211C89.2016 117.266 88.4362 121.596 88.6038 125.943C88.7715 130.29 89.8687 134.563 91.8297 138.506C93.7907 142.449 96.5748 145.98 100.015 148.887C103.455 151.795 107.48 154.018 111.848 155.424C114.965 156.427 118.21 156.999 121.484 157.128C122.014 157.149 122.528 157.259 123.005 157.446L228.153 154.528C228.483 154.519 228.803 154.55 229.111 154.616C230.66 154.305 232.182 153.826 233.651 153.184C238.114 151.23 241.835 147.867 244.239 143.612C246.644 139.357 247.598 134.447 246.954 129.64C246.491 126.176 245.216 122.903 243.257 120.079C242.869 119.52 242.596 118.893 242.449 118.247C241.7 116.862 241.77 115.081 242.651 113.662C244.233 111.115 245.485 108.381 246.369 105.533C247.653 101.4 248.136 97.1086 247.792 92.9025C247.449 88.6964 246.284 84.6584 244.366 81.019C242.448 77.3796 239.813 74.2101 236.612 71.6914C233.411 69.1727 229.707 67.3542 225.711 66.3396C221.715 65.3251 217.505 65.1345 213.322 65.7786C209.139 66.4227 205.065 67.8889 201.332 70.0936C198.82 71.5771 196.496 73.3754 194.417 75.438C193.898 76.5128 192.858 77.3326 191.574 77.5609L189.458 77.9373C187.257 78.3289 185.187 76.8318 184.59 74.6787C183.785 71.7781 182.621 68.9994 181.125 66.4207C178.958 62.6849 176.138 59.4419 172.825 56.877C169.513 54.312 165.772 52.4753 161.818 51.4716C157.864 50.468 153.773 50.3171 149.78 51.0275C145.786 51.738 141.968 53.2959 138.542 55.6123C135.117 57.9287 132.152 60.9582 129.817 64.5279C127.481 68.0977 125.821 72.1376 124.932 76.4171C124.308 79.417 124.071 82.4933 124.223 85.559ZM251.77 118.316C253.711 115.091 255.259 111.649 256.37 108.072C258.075 102.581 258.717 96.879 258.261 91.2906C257.804 85.7022 256.257 80.3371 253.708 75.5016C251.159 70.6661 247.659 66.4549 243.406 63.1085C239.153 59.762 234.231 57.3458 228.922 55.9979C223.613 54.6499 218.019 54.3966 212.462 55.2524C206.904 56.1082 201.491 58.0563 196.531 60.9855C194.827 61.9919 193.188 63.1073 191.624 64.3229C191.037 63.0601 190.394 61.8255 189.697 60.6236C186.818 55.66 183.071 51.3513 178.67 47.9434C174.268 44.5355 169.299 42.0951 164.045 40.7616C158.792 39.4281 153.357 39.2276 148.05 40.1715C142.744 41.1155 137.671 43.1854 133.12 46.2631C128.569 49.3408 124.629 53.366 121.527 58.1088C118.424 62.8517 116.218 68.2194 115.036 73.9054C114.332 77.2906 113.999 80.7492 114.038 84.2101C111.2 84.7436 108.419 85.5419 105.735 86.5973C100.273 88.7459 95.3313 91.9157 91.2076 95.9164C87.0839 99.917 83.8631 104.666 81.7388 109.878C79.6145 115.089 78.6306 120.656 78.8461 126.244C79.0616 131.832 80.4721 137.325 82.9929 142.393C85.5137 147.462 89.0927 152.001 93.5149 155.738C97.9371 159.476 103.111 162.334 108.726 164.141C112.971 165.507 117.402 166.251 121.864 166.355C122.247 166.464 122.652 166.517 123.07 166.505L228.399 163.582C229.396 163.555 230.298 163.165 230.981 162.542C232.968 162.115 234.921 161.487 236.809 160.661C242.918 157.987 248.011 153.383 251.302 147.559C254.593 141.735 255.899 135.014 255.019 128.434C254.541 124.862 253.433 121.44 251.77 118.316Z" fill="#2D9CDB"/>
<path d="M99.1021 72.5367C99.4128 70.3908 97.9544 68.3369 95.7929 68.1268C85.0848 67.0861 74.3936 70.0608 65.558 76.6225C55.6579 83.9747 48.8638 95.2539 46.6125 108.074C44.3612 120.895 46.8294 134.252 53.4949 145.32C59.4047 155.132 68.2031 162.464 78.366 166.148C80.5017 166.922 82.7074 165.549 83.1644 163.341L83.6611 160.939C84.097 158.832 82.7704 156.749 80.7449 155.976C72.9386 152.997 66.1893 147.284 61.6208 139.699C56.345 130.938 54.3915 120.366 56.1734 110.219C57.9553 100.071 63.3329 91.1439 71.1688 85.3246C77.8857 80.3363 85.9574 77.9671 94.0946 78.5174C96.336 78.6689 98.4261 77.2072 98.7476 74.9861L99.1021 72.5367Z" fill="#81C3E9"/>
<path d="M137.508 28.5368C138.257 26.377 137.004 23.9809 134.719 23.5819C129.284 22.6332 123.637 22.8484 118.17 24.2337C111.287 25.9776 104.954 29.5085 99.8602 34.4412C94.7668 39.3738 91.1091 45.5189 89.2862 52.2058C87.836 57.5252 87.5913 63.0251 88.5474 68.3223C88.9503 70.5541 91.3086 71.7837 93.4582 71.089L95.6347 70.3856C97.675 69.7262 98.7596 67.5697 98.4423 65.442C97.8978 61.7913 98.1215 58.0277 99.1161 54.3793C100.457 49.4608 103.147 44.9409 106.894 41.3127C110.64 37.6845 115.299 35.0874 120.361 33.8047C124.173 32.839 128.103 32.6463 131.906 33.2229C134.008 33.5415 136.136 32.4958 136.822 30.5159L137.508 28.5368Z" fill="#81C3E9"/>
<path d="M6.38845 190.532C6.38845 189.83 6.57748 189.263 6.95554 188.831C7.65765 188.183 8.38676 187.859 9.14288 187.859H23.4821C27.4787 187.859 30.7463 188.885 33.2847 190.937C35.823 192.935 37.0922 195.636 37.0922 199.038C37.0922 201.415 36.2821 203.575 34.6619 205.519C33.0956 207.356 31.0433 208.544 28.5049 209.084V209.246C33.5277 210.11 36.7682 212.432 38.2264 216.213C38.7125 217.455 38.9555 218.832 38.9555 220.345C38.9555 221.857 38.6855 223.342 38.1454 224.8C37.6593 226.205 36.8222 227.474 35.634 228.608C32.8796 231.146 29.045 232.416 24.1302 232.416H9.14288C8.0087 232.416 7.17157 231.875 6.63149 230.795C6.46946 230.471 6.38845 230.12 6.38845 229.742V190.532ZM11.8973 228.122H21.2948C25.3994 228.122 28.3429 227.555 30.1252 226.421C32.1775 225.07 33.2036 222.856 33.2036 219.778C33.2036 215.025 30.3682 212.324 24.6973 211.676C22.969 211.514 21.0787 211.433 19.0264 211.433H11.8973V228.122ZM31.4214 199.605C31.4214 194.637 27.9378 192.152 20.9707 192.152H11.8973V207.383H21.1328C25.8315 207.383 28.991 206.005 30.6112 203.251C31.1513 202.279 31.4214 201.064 31.4214 199.605ZM48.5043 190.37C48.5043 189.56 48.7473 188.939 49.2334 188.507C49.7735 188.075 50.2866 187.859 50.7726 187.859C51.2587 187.859 51.6368 187.913 51.9068 188.021C52.1768 188.129 52.4199 188.291 52.6359 188.507C53.176 188.939 53.446 189.56 53.446 190.37V229.904C53.446 230.714 53.176 231.335 52.6359 231.767C52.0958 232.199 51.5017 232.416 50.8536 232.416C50.2595 232.416 49.7195 232.226 49.2334 231.848C48.7473 231.416 48.5043 230.768 48.5043 229.904V190.37ZM60.9859 217.023C60.9859 215.079 61.283 213.108 61.8771 211.109C62.5252 209.111 63.4973 207.356 64.7935 205.843C67.602 202.441 71.4906 200.74 76.4593 200.74C81.3201 200.74 85.2087 202.441 88.1252 205.843C90.6636 208.814 91.9328 212.513 91.9328 216.942C91.9328 221.317 90.6636 225.016 88.1252 228.041C85.2627 231.389 81.3741 233.064 76.4593 233.064C71.4366 233.064 67.5479 231.389 64.7935 228.041C62.2551 224.962 60.9859 221.29 60.9859 217.023ZM66.3328 217.023C66.3328 218.319 66.5218 219.697 66.8998 221.155C67.2779 222.613 67.872 223.936 68.6821 225.124C70.5724 227.879 73.1648 229.256 76.4593 229.256C79.8079 229.256 82.4003 227.879 84.2366 225.124C85.7488 222.802 86.5049 220.075 86.5049 216.942C86.5049 213.864 85.7488 211.136 84.2366 208.76C82.4543 206.005 79.8619 204.628 76.4593 204.628C73.1108 204.628 70.5184 206.005 68.6821 208.76C67.1159 211.082 66.3328 213.837 66.3328 217.023ZM97.4604 216.942C97.4604 212.351 98.7296 208.544 101.268 205.519C104.022 202.333 107.668 200.74 112.205 200.74C114.473 200.74 116.309 201.01 117.714 201.55C120.36 202.576 121.683 203.656 121.683 204.79C121.683 205.276 121.521 205.708 121.197 206.086C120.873 206.464 120.495 206.654 120.063 206.654C119.685 206.654 119.361 206.599 119.091 206.491C116.984 205.303 115.013 204.709 113.177 204.709C111.395 204.655 109.882 204.925 108.64 205.519C107.398 206.113 106.345 206.924 105.481 207.95C103.644 210.218 102.726 213.189 102.726 216.861C102.726 220.21 103.428 223.018 104.833 225.286C106.507 227.933 109.099 229.256 112.61 229.256C114.716 229.256 117.066 228.581 119.658 227.231C120.576 226.907 121.224 226.961 121.602 227.393C122.034 227.825 122.25 228.338 122.25 228.932C122.25 229.472 121.899 230.012 121.197 230.552C120.495 231.092 119.631 231.551 118.605 231.929C113.744 233.55 109.423 233.496 105.643 231.767C102.132 230.147 99.7018 227.285 98.3516 223.18C97.7575 221.236 97.4604 219.156 97.4604 216.942Z" fill="#81C3E9"/>
<path d="M133.606 226.259C131.932 224.152 130.689 221.695 129.879 218.886C129.069 216.078 128.664 213.216 128.664 210.299C128.664 207.383 129.069 204.52 129.879 201.712C130.689 198.903 131.932 196.446 133.606 194.34C137.278 189.749 142.382 187.454 148.917 187.454C152.914 187.454 156.64 188.291 160.097 189.965C161.015 190.397 161.474 191.018 161.474 191.828C161.474 192.638 161.285 193.286 160.907 193.772C160.583 194.205 160.205 194.421 159.773 194.421C159.341 194.421 158.666 194.259 157.748 193.935C156.829 193.556 155.533 193.205 153.859 192.881C152.185 192.503 150.538 192.314 148.917 192.314C147.297 192.314 145.758 192.584 144.3 193.124C142.895 193.61 141.626 194.286 140.492 195.15C139.412 196.014 138.494 197.04 137.738 198.228C136.981 199.362 136.36 200.605 135.874 201.955C134.956 204.601 134.497 207.41 134.497 210.38C134.497 215.025 135.577 219.048 137.738 222.451C140.222 226.34 144.083 228.284 149.322 228.284C151.645 228.284 154.183 227.771 156.938 226.745C157.856 226.367 158.585 226.043 159.125 225.772C159.719 225.394 160.259 225.205 160.745 225.205C161.285 225.205 161.717 225.421 162.041 225.854C162.419 226.232 162.608 226.718 162.608 227.312C162.608 227.852 162.392 228.392 161.96 228.932C161.528 229.418 160.934 229.877 160.178 230.309C159.476 230.741 158.639 231.146 157.667 231.524C156.748 231.848 155.776 232.145 154.75 232.416C152.806 232.848 150.889 233.064 148.998 233.064C142.355 233.064 137.224 230.795 133.606 226.259ZM173.129 190.37C173.129 189.56 173.372 188.939 173.858 188.507C174.398 188.075 174.912 187.859 175.398 187.859C175.884 187.859 176.262 187.913 176.532 188.021C176.802 188.129 177.045 188.291 177.261 188.507C177.801 188.939 178.071 189.56 178.071 190.37V229.904C178.071 230.714 177.801 231.335 177.261 231.767C176.721 232.199 176.127 232.416 175.479 232.416C174.885 232.416 174.344 232.226 173.858 231.848C173.372 231.416 173.129 230.768 173.129 229.904V190.37ZM185.611 217.023C185.611 215.079 185.908 213.108 186.502 211.109C187.15 209.111 188.122 207.356 189.419 205.843C192.227 202.441 196.116 200.74 201.084 200.74C205.945 200.74 209.834 202.441 212.75 205.843C215.289 208.814 216.558 212.513 216.558 216.942C216.558 221.317 215.289 225.016 212.75 228.041C209.888 231.389 205.999 233.064 201.084 233.064C196.062 233.064 192.173 231.389 189.419 228.041C186.88 224.962 185.611 221.29 185.611 217.023ZM190.958 217.023C190.958 218.319 191.147 219.697 191.525 221.155C191.903 222.613 192.497 223.936 193.307 225.124C195.197 227.879 197.79 229.256 201.084 229.256C204.433 229.256 207.025 227.879 208.862 225.124C210.374 222.802 211.13 220.075 211.13 216.942C211.13 213.864 210.374 211.136 208.862 208.76C207.079 206.005 204.487 204.628 201.084 204.628C197.736 204.628 195.143 206.005 193.307 208.76C191.741 211.082 190.958 213.837 190.958 217.023ZM250.602 230.066C250.602 230.876 250.332 231.47 249.792 231.848C249.252 232.226 248.739 232.416 248.253 232.416C247.82 232.416 247.442 232.389 247.118 232.335C246.848 232.226 246.605 232.091 246.389 231.929C245.849 231.443 245.579 230.849 245.579 230.147V227.312C244.283 230.12 241.88 231.929 238.369 232.74C237.343 232.956 236.182 233.064 234.885 233.064C233.589 233.064 232.266 232.848 230.916 232.416C229.62 231.983 228.458 231.281 227.432 230.309C225.218 228.149 224.111 225.043 224.111 220.993V203.818C224.111 203.008 224.354 202.414 224.84 202.036C225.38 201.658 225.974 201.469 226.622 201.469C227.27 201.469 227.837 201.658 228.323 202.036C228.864 202.414 229.134 203.008 229.134 203.818V221.317C229.134 224.287 229.701 226.34 230.835 227.474C232.023 228.662 233.832 229.256 236.263 229.256C240.367 229.256 243.176 227.609 244.688 224.314C245.174 223.18 245.471 221.857 245.579 220.345V203.818C245.579 203.062 245.849 202.495 246.389 202.117C246.929 201.685 247.496 201.469 248.091 201.469C248.739 201.469 249.306 201.658 249.792 202.036C250.332 202.414 250.602 203.008 250.602 203.818V230.066ZM284.945 232.416C283.432 232.416 282.568 231.659 282.352 230.147V227.231C280.894 229.337 279.247 230.849 277.41 231.767C275.574 232.632 273.495 233.064 271.172 233.064C268.904 233.064 266.933 232.605 265.259 231.686C263.638 230.768 262.315 229.553 261.289 228.041C259.237 224.908 258.21 221.155 258.21 216.78C258.21 212.297 259.264 208.598 261.37 205.681C263.638 202.387 266.96 200.74 271.334 200.74C274.791 200.74 277.789 201.793 280.327 203.899C281.137 204.601 281.812 205.438 282.352 206.41V190.127C282.352 189.371 282.595 188.804 283.081 188.426C283.621 188.048 284.216 187.859 284.864 187.859C285.512 187.859 286.079 188.075 286.565 188.507C287.105 188.885 287.375 189.425 287.375 190.127V230.066C287.375 230.876 287.105 231.47 286.565 231.848C286.079 232.226 285.539 232.416 284.945 232.416ZM277.248 205.6C276.006 204.952 274.494 204.628 272.712 204.628C270.983 204.628 269.525 204.979 268.337 205.681C267.149 206.383 266.204 207.302 265.502 208.436C264.151 210.596 263.476 213.297 263.476 216.537C263.476 222.964 265.367 227.015 269.147 228.689C270.011 229.067 271.226 229.256 272.793 229.256C274.359 229.256 275.79 228.905 277.086 228.203C278.383 227.501 279.409 226.583 280.165 225.448C281.569 223.288 282.271 220.264 282.271 216.375C282.271 210.974 280.597 207.383 277.248 205.6Z" fill="#2D9CDB"/>
</svg>
