<svg width="764" height="345" viewBox="0 0 764 345" fill="none" xmlns="http://www.w3.org/2000/svg">
<path d="M501.758 17.3479C501.547 19.1526 500.879 20.5471 499.754 21.5315C498.637 22.5081 497.149 22.9964 495.289 22.9964C493.274 22.9964 491.657 22.2737 490.438 20.8284C489.227 19.3831 488.622 17.4495 488.622 15.0276V13.387C488.622 11.8011 488.903 10.4065 489.465 9.2034C490.036 8.00027 490.84 7.0784 491.879 6.43777C492.918 5.78934 494.122 5.46512 495.489 5.46512C497.301 5.46512 498.754 5.97293 499.848 6.98856C500.942 7.99637 501.579 9.39481 501.758 11.1839H499.497C499.301 9.82449 498.875 8.84012 498.219 8.23074C497.571 7.62137 496.661 7.31668 495.489 7.31668C494.051 7.31668 492.922 7.84793 492.102 8.91043C491.289 9.97293 490.883 11.4846 490.883 13.4456V15.0979C490.883 16.9495 491.27 18.4221 492.043 19.5159C492.817 20.6096 493.899 21.1565 495.289 21.1565C496.539 21.1565 497.497 20.8753 498.161 20.3128C498.832 19.7425 499.278 18.7542 499.497 17.3479H501.758ZM517.965 14.7815C517.965 16.4534 517.684 17.9143 517.122 19.1643C516.559 20.4065 515.762 21.3557 514.731 22.012C513.7 22.6682 512.497 22.9964 511.122 22.9964C509.778 22.9964 508.586 22.6682 507.547 22.012C506.508 21.3479 505.7 20.4065 505.122 19.1878C504.551 17.9612 504.258 16.5432 504.243 14.9339V13.7034C504.243 12.0628 504.528 10.6136 505.098 9.35574C505.668 8.09793 506.473 7.13699 507.512 6.47293C508.559 5.80106 509.754 5.46512 511.098 5.46512C512.465 5.46512 513.668 5.79715 514.707 6.46121C515.754 7.11746 516.559 8.07449 517.122 9.33231C517.684 10.5823 517.965 12.0393 517.965 13.7034V14.7815ZM515.727 13.68C515.727 11.6565 515.321 10.1057 514.508 9.02762C513.696 7.94168 512.559 7.39871 511.098 7.39871C509.676 7.39871 508.555 7.94168 507.735 9.02762C506.922 10.1057 506.504 11.6057 506.481 13.5276V14.7815C506.481 16.7425 506.891 18.2854 507.711 19.4104C508.539 20.5276 509.676 21.0862 511.122 21.0862C512.575 21.0862 513.7 20.5589 514.497 19.5042C515.293 18.4417 515.704 16.9221 515.727 14.9456V13.68ZM523.602 20.9221H531.688V22.762H521.34V5.69949H523.602V20.9221ZM546.606 14.7815C546.606 16.4534 546.325 17.9143 545.762 19.1643C545.2 20.4065 544.403 21.3557 543.372 22.012C542.34 22.6682 541.137 22.9964 539.762 22.9964C538.418 22.9964 537.227 22.6682 536.188 22.012C535.149 21.3479 534.34 20.4065 533.762 19.1878C533.192 17.9612 532.899 16.5432 532.883 14.9339V13.7034C532.883 12.0628 533.168 10.6136 533.739 9.35574C534.309 8.09793 535.114 7.13699 536.153 6.47293C537.2 5.80106 538.395 5.46512 539.739 5.46512C541.106 5.46512 542.309 5.79715 543.348 6.46121C544.395 7.11746 545.2 8.07449 545.762 9.33231C546.325 10.5823 546.606 12.0393 546.606 13.7034V14.7815ZM544.368 13.68C544.368 11.6565 543.961 10.1057 543.149 9.02762C542.336 7.94168 541.2 7.39871 539.739 7.39871C538.317 7.39871 537.196 7.94168 536.375 9.02762C535.563 10.1057 535.145 11.6057 535.122 13.5276V14.7815C535.122 16.7425 535.532 18.2854 536.352 19.4104C537.18 20.5276 538.317 21.0862 539.762 21.0862C541.215 21.0862 542.34 20.5589 543.137 19.5042C543.934 18.4417 544.344 16.9221 544.368 14.9456V13.68ZM556.239 15.8596H552.231V22.762H549.969V5.69949H555.618C557.539 5.69949 559.016 6.13699 560.047 7.01199C561.086 7.88699 561.606 9.16043 561.606 10.8323C561.606 11.8948 561.317 12.8206 560.739 13.6096C560.168 14.3987 559.372 14.9886 558.348 15.3792L562.356 22.6214V22.762H559.942L556.239 15.8596ZM552.231 14.0198H555.688C556.805 14.0198 557.692 13.7307 558.348 13.1526C559.012 12.5745 559.344 11.8011 559.344 10.8323C559.344 9.77762 559.028 8.96902 558.395 8.40652C557.77 7.84402 556.864 7.55887 555.676 7.55106H552.231V14.0198ZM572.973 16.0823V22.762H570.723V5.69949H577.016C578.883 5.69949 580.344 6.17606 581.399 7.12918C582.461 8.08231 582.993 9.34402 582.993 10.9143C582.993 12.5706 582.473 13.8479 581.434 14.7464C580.403 15.637 578.922 16.0823 576.993 16.0823H572.973ZM572.973 14.2425H577.016C578.219 14.2425 579.141 13.9612 579.782 13.3987C580.422 12.8284 580.743 12.0081 580.743 10.9378C580.743 9.92215 580.422 9.10965 579.782 8.50027C579.141 7.8909 578.262 7.57449 577.145 7.55106H572.973V14.2425ZM593.668 18.3089H586.52L584.914 22.762H582.594L589.11 5.69949H591.079L597.606 22.762H595.297L593.668 18.3089ZM587.2 16.4573H593L590.094 8.47684L587.2 16.4573ZM602.164 20.9221H610.25V22.762H599.903V5.69949H602.164V20.9221ZM622.461 14.8753H615.067V20.9221H623.657V22.762H612.817V5.69949H623.539V7.55106H615.067V13.0354H622.461V14.8753ZM638.481 7.55106H632.997V22.762H630.758V7.55106H625.286V5.69949H638.481V7.55106ZM652.989 7.55106H647.504V22.762H645.266V7.55106H639.793V5.69949H652.989V7.55106ZM665.164 14.8753H657.77V20.9221H666.36V22.762H655.52V5.69949H666.243V7.55106H657.77V13.0354H665.164V14.8753Z" fill="black"/>
<line x1="489.226" y1="29.512" x2="763.226" y2="28.512" stroke="black" stroke-width="0.5"/>
<circle cx="514" cy="71" r="25" fill="#2D9CDB"/>
<path d="M562.23 73.0967H560.039L559.375 76.5H558.188L558.852 73.0967H556.868V71.9595H559.068L559.64 69.021H557.499V67.8672H559.864L560.545 64.4141H561.732L561.051 67.8672H563.243L563.923 64.4141H565.119L564.438 67.8672H566.131V69.021H564.214L563.641 71.9595H565.509V73.0967H563.425L562.761 76.5H561.566L562.23 73.0967ZM560.255 71.9595H562.446L563.019 69.021H560.827L560.255 71.9595ZM575.279 76.5H567.36V75.396L571.544 70.7476C572.163 70.0448 572.589 69.4748 572.822 69.0376C573.06 68.5949 573.179 68.1383 573.179 67.668C573.179 67.0371 572.988 66.5197 572.606 66.1157C572.224 65.7118 571.715 65.5098 571.079 65.5098C570.315 65.5098 569.72 65.7284 569.294 66.1655C568.873 66.5972 568.663 67.2004 568.663 67.9751H567.128C567.128 66.8628 567.484 65.9635 568.198 65.2773C568.918 64.5911 569.878 64.248 571.079 64.248C572.202 64.248 573.09 64.5441 573.743 65.1362C574.396 65.7228 574.723 66.5059 574.723 67.4854C574.723 68.6751 573.965 70.0918 572.448 71.7354L569.211 75.2466H575.279V76.5ZM577.304 76.5V64.4141H580.716C581.767 64.4141 582.697 64.6465 583.505 65.1113C584.313 65.5762 584.936 66.2375 585.373 67.0952C585.815 67.953 586.04 68.938 586.045 70.0503V70.8223C586.045 71.9622 585.824 72.9611 585.381 73.8188C584.944 74.6766 584.316 75.3351 583.497 75.7944C582.683 76.2537 581.734 76.4889 580.65 76.5H577.304ZM578.898 65.7256V75.1968H580.575C581.803 75.1968 582.758 74.8149 583.439 74.0513C584.125 73.2876 584.468 72.2002 584.468 70.7891V70.0835C584.468 68.7111 584.144 67.6458 583.497 66.8877C582.855 66.124 581.942 65.7367 580.757 65.7256H578.898ZM593.947 71.1875C593.626 71.5693 593.242 71.8765 592.794 72.1089C592.351 72.3413 591.864 72.4575 591.333 72.4575C590.635 72.4575 590.027 72.286 589.506 71.9429C588.992 71.5998 588.593 71.1183 588.311 70.4985C588.029 69.8732 587.888 69.1842 587.888 68.4316C587.888 67.6237 588.04 66.896 588.344 66.2485C588.654 65.6011 589.091 65.1058 589.656 64.7627C590.22 64.4196 590.879 64.248 591.631 64.248C592.827 64.248 593.768 64.6963 594.454 65.5928C595.145 66.4837 595.491 67.7012 595.491 69.2451V69.6934C595.491 72.0452 595.026 73.7635 594.097 74.8481C593.167 75.9272 591.764 76.4806 589.888 76.5083H589.589V75.2134H589.913C591.18 75.1912 592.154 74.862 592.835 74.2256C593.516 73.5837 593.887 72.571 593.947 71.1875ZM591.582 71.1875C592.096 71.1875 592.569 71.0298 593.001 70.7144C593.438 70.3989 593.756 70.0088 593.956 69.5439V68.9297C593.956 67.9225 593.737 67.1035 593.3 66.4727C592.863 65.8418 592.309 65.5264 591.64 65.5264C590.965 65.5264 590.422 65.7865 590.013 66.3066C589.603 66.8213 589.399 67.502 589.399 68.3486C589.399 69.1732 589.595 69.8538 589.988 70.3906C590.386 70.9219 590.918 71.1875 591.582 71.1875ZM606.897 72.665C606.747 73.9434 606.274 74.9312 605.477 75.6284C604.686 76.3201 603.632 76.666 602.315 76.666C600.887 76.666 599.741 76.1541 598.878 75.1304C598.02 74.1066 597.591 72.737 597.591 71.0215V69.8594C597.591 68.736 597.791 67.7482 598.189 66.896C598.593 66.0438 599.163 65.3908 599.899 64.937C600.635 64.4777 601.487 64.248 602.456 64.248C603.74 64.248 604.769 64.6077 605.544 65.3271C606.318 66.041 606.769 67.0316 606.897 68.2988H605.295C605.156 67.3359 604.855 66.6387 604.39 66.207C603.93 65.7754 603.286 65.5596 602.456 65.5596C601.437 65.5596 600.638 65.9359 600.057 66.6885C599.481 67.4411 599.193 68.5119 599.193 69.9009V71.0713C599.193 72.3828 599.467 73.4259 600.015 74.2007C600.563 74.9754 601.33 75.3628 602.315 75.3628C603.2 75.3628 603.878 75.1636 604.348 74.7651C604.824 74.3612 605.14 73.6611 605.295 72.665H606.897ZM609.08 76.5V64.4141H612.491C613.543 64.4141 614.472 64.6465 615.28 65.1113C616.088 65.5762 616.711 66.2375 617.148 67.0952C617.591 67.953 617.815 68.938 617.82 70.0503V70.8223C617.82 71.9622 617.599 72.9611 617.156 73.8188C616.719 74.6766 616.091 75.3351 615.272 75.7944C614.459 76.2537 613.51 76.4889 612.425 76.5H609.08ZM610.673 65.7256V75.1968H612.35C613.579 75.1968 614.533 74.8149 615.214 74.0513C615.9 73.2876 616.243 72.2002 616.243 70.7891V70.0835C616.243 68.7111 615.92 67.6458 615.272 66.8877C614.63 66.124 613.717 65.7367 612.533 65.7256H610.673ZM620.236 76.5V64.4141H624.187C625.499 64.4141 626.484 64.6852 627.142 65.2275C627.806 65.7699 628.138 66.5723 628.138 67.6348C628.138 68.1992 627.978 68.7 627.657 69.1372C627.336 69.5688 626.899 69.9036 626.345 70.1416C626.998 70.3242 627.513 70.6729 627.889 71.1875C628.271 71.6966 628.462 72.3053 628.462 73.0137C628.462 74.0983 628.111 74.9505 627.408 75.5703C626.705 76.1901 625.712 76.5 624.428 76.5H620.236ZM621.83 70.8472V75.1968H624.461C625.203 75.1968 625.786 75.0059 626.213 74.624C626.644 74.2367 626.86 73.7054 626.86 73.0303C626.86 71.5749 626.069 70.8472 624.486 70.8472H621.83ZM621.83 69.5688H624.237C624.934 69.5688 625.49 69.3945 625.905 69.0459C626.326 68.6973 626.536 68.2241 626.536 67.6265C626.536 66.9624 626.343 66.481 625.955 66.1821C625.568 65.8778 624.978 65.7256 624.187 65.7256H621.83V69.5688Z" fill="black"/>
<circle cx="514.716" cy="145" r="25" fill="#81C3E9"/>
<path d="M562.946 147.097H560.755L560.091 150.5H558.904L559.568 147.097H557.584V145.959H559.784L560.356 143.021H558.215V141.867H560.58L561.261 138.414H562.448L561.767 141.867H563.959L564.639 138.414H565.835L565.154 141.867H566.847V143.021H564.93L564.357 145.959H566.225V147.097H564.141L563.477 150.5H562.282L562.946 147.097ZM560.971 145.959H563.162L563.735 143.021H561.543L560.971 145.959ZM575.406 141.568C575.406 142.172 575.245 142.708 574.924 143.179C574.609 143.649 574.18 144.017 573.638 144.283C574.268 144.554 574.766 144.95 575.132 145.47C575.502 145.99 575.688 146.579 575.688 147.238C575.688 148.284 575.334 149.117 574.625 149.736C573.923 150.356 572.996 150.666 571.845 150.666C570.682 150.666 569.75 150.356 569.047 149.736C568.35 149.111 568.001 148.278 568.001 147.238C568.001 146.585 568.178 145.995 568.533 145.47C568.892 144.944 569.388 144.546 570.018 144.274C569.482 144.009 569.058 143.641 568.748 143.17C568.438 142.7 568.284 142.166 568.284 141.568C568.284 140.55 568.61 139.742 569.263 139.145C569.916 138.547 570.777 138.248 571.845 138.248C572.907 138.248 573.765 138.547 574.418 139.145C575.076 139.742 575.406 140.55 575.406 141.568ZM574.152 147.205C574.152 146.529 573.936 145.979 573.505 145.553C573.079 145.127 572.52 144.914 571.828 144.914C571.136 144.914 570.58 145.124 570.159 145.544C569.744 145.965 569.537 146.518 569.537 147.205C569.537 147.891 569.739 148.43 570.143 148.823C570.552 149.216 571.12 149.413 571.845 149.413C572.564 149.413 573.128 149.216 573.538 148.823C573.947 148.425 574.152 147.885 574.152 147.205ZM571.845 139.51C571.241 139.51 570.752 139.698 570.375 140.074C570.005 140.445 569.819 140.951 569.819 141.593C569.819 142.208 570.002 142.706 570.367 143.087C570.738 143.464 571.23 143.652 571.845 143.652C572.459 143.652 572.949 143.464 573.314 143.087C573.685 142.706 573.87 142.208 573.87 141.593C573.87 140.979 573.679 140.478 573.297 140.091C572.915 139.703 572.431 139.51 571.845 139.51ZM582.669 150.5H581.125V140.265L578.029 141.402V140.008L582.428 138.356H582.669V150.5ZM596.456 146.665C596.307 147.943 595.834 148.931 595.037 149.628C594.246 150.32 593.191 150.666 591.874 150.666C590.447 150.666 589.301 150.154 588.438 149.13C587.58 148.107 587.151 146.737 587.151 145.021V143.859C587.151 142.736 587.35 141.748 587.749 140.896C588.153 140.044 588.723 139.391 589.459 138.937C590.195 138.478 591.047 138.248 592.015 138.248C593.299 138.248 594.329 138.608 595.103 139.327C595.878 140.041 596.329 141.032 596.456 142.299H594.854C594.716 141.336 594.414 140.639 593.95 140.207C593.49 139.775 592.846 139.56 592.015 139.56C590.997 139.56 590.198 139.936 589.617 140.688C589.041 141.441 588.753 142.512 588.753 143.901V145.071C588.753 146.383 589.027 147.426 589.575 148.201C590.123 148.975 590.889 149.363 591.874 149.363C592.76 149.363 593.438 149.164 593.908 148.765C594.384 148.361 594.699 147.661 594.854 146.665H596.456ZM600.474 143.71H601.628C602.353 143.699 602.923 143.508 603.338 143.137C603.753 142.766 603.96 142.266 603.96 141.635C603.96 140.218 603.255 139.51 601.844 139.51C601.18 139.51 600.648 139.701 600.25 140.083C599.857 140.459 599.66 140.96 599.66 141.585H598.125C598.125 140.628 598.473 139.833 599.171 139.203C599.874 138.566 600.764 138.248 601.844 138.248C602.984 138.248 603.877 138.55 604.525 139.153C605.172 139.756 605.496 140.594 605.496 141.668C605.496 142.194 605.324 142.703 604.981 143.195C604.644 143.688 604.182 144.056 603.595 144.299C604.259 144.51 604.771 144.858 605.131 145.345C605.496 145.832 605.679 146.427 605.679 147.13C605.679 148.215 605.324 149.075 604.616 149.711C603.908 150.348 602.986 150.666 601.852 150.666C600.717 150.666 599.793 150.359 599.079 149.745C598.371 149.13 598.017 148.32 598.017 147.312H599.561C599.561 147.949 599.768 148.458 600.183 148.84C600.598 149.222 601.155 149.413 601.852 149.413C602.593 149.413 603.161 149.219 603.554 148.832C603.946 148.444 604.143 147.888 604.143 147.163C604.143 146.46 603.927 145.921 603.495 145.544C603.064 145.168 602.441 144.974 601.628 144.963H600.474V143.71ZM615.017 144.914H609.779V149.197H615.864V150.5H608.185V138.414H615.781V139.726H609.779V143.61H615.017V144.914ZM623.334 145.188C623.013 145.569 622.629 145.876 622.18 146.109C621.738 146.341 621.251 146.458 620.72 146.458C620.022 146.458 619.414 146.286 618.893 145.943C618.379 145.6 617.98 145.118 617.698 144.499C617.416 143.873 617.275 143.184 617.275 142.432C617.275 141.624 617.427 140.896 617.731 140.249C618.041 139.601 618.478 139.106 619.043 138.763C619.607 138.42 620.266 138.248 621.018 138.248C622.214 138.248 623.154 138.696 623.841 139.593C624.532 140.484 624.878 141.701 624.878 143.245V143.693C624.878 146.045 624.413 147.764 623.484 148.848C622.554 149.927 621.151 150.481 619.275 150.508H618.976V149.213H619.3C620.567 149.191 621.541 148.862 622.222 148.226C622.903 147.584 623.273 146.571 623.334 145.188ZM620.969 145.188C621.483 145.188 621.956 145.03 622.388 144.714C622.825 144.399 623.143 144.009 623.343 143.544V142.93C623.343 141.923 623.124 141.104 622.687 140.473C622.25 139.842 621.696 139.526 621.027 139.526C620.352 139.526 619.809 139.786 619.4 140.307C618.99 140.821 618.785 141.502 618.785 142.349C618.785 143.173 618.982 143.854 619.375 144.391C619.773 144.922 620.305 145.188 620.969 145.188Z" fill="black"/>
<path d="M14.0981 7.55106H8.61372V22.762H6.37544V7.55106H0.902786V5.69949H14.0981V7.55106ZM22.02 14.2659L26.4731 5.69949H29.0278L23.145 16.3987V22.762H20.895V16.3987L15.0122 5.69949H17.5903L22.02 14.2659ZM33.4809 16.0823V22.762H31.2309V5.69949H37.5239C39.3911 5.69949 40.852 6.17606 41.9067 7.12918C42.9692 8.08231 43.5004 9.34402 43.5004 10.9143C43.5004 12.5706 42.9809 13.8479 41.9418 14.7464C40.9106 15.637 39.4301 16.0823 37.5004 16.0823H33.4809ZM33.4809 14.2425H37.5239C38.727 14.2425 39.6489 13.9612 40.2895 13.3987C40.9301 12.8284 41.2504 12.0081 41.2504 10.9378C41.2504 9.92215 40.9301 9.10965 40.2895 8.50027C39.6489 7.8909 38.77 7.57449 37.6528 7.55106H33.4809V14.2425ZM59.4965 14.7815C59.4965 16.4534 59.2153 17.9143 58.6528 19.1643C58.0903 20.4065 57.2934 21.3557 56.2622 22.012C55.2309 22.6682 54.0278 22.9964 52.6528 22.9964C51.309 22.9964 50.1176 22.6682 49.0786 22.012C48.0395 21.3479 47.2309 20.4065 46.6528 19.1878C46.0825 17.9612 45.7895 16.5432 45.7739 14.9339V13.7034C45.7739 12.0628 46.059 10.6136 46.6293 9.35574C47.1997 8.09793 48.0043 7.13699 49.0434 6.47293C50.0903 5.80106 51.2856 5.46512 52.6293 5.46512C53.9965 5.46512 55.1997 5.79715 56.2387 6.46121C57.2856 7.11746 58.0903 8.07449 58.6528 9.33231C59.2153 10.5823 59.4965 12.0393 59.4965 13.7034V14.7815ZM57.2583 13.68C57.2583 11.6565 56.852 10.1057 56.0395 9.02762C55.227 7.94168 54.0903 7.39871 52.6293 7.39871C51.2075 7.39871 50.0864 7.94168 49.2661 9.02762C48.4536 10.1057 48.0356 11.6057 48.0122 13.5276V14.7815C48.0122 16.7425 48.4223 18.2854 49.2426 19.4104C50.0708 20.5276 51.2075 21.0862 52.6528 21.0862C54.1059 21.0862 55.2309 20.5589 56.0278 19.5042C56.8247 18.4417 57.2348 16.9221 57.2583 14.9456V13.68ZM75.4692 20.5237C74.8911 21.3518 74.0825 21.9729 73.0434 22.387C72.0122 22.7932 70.809 22.9964 69.434 22.9964C68.0434 22.9964 66.809 22.6721 65.7309 22.0237C64.6528 21.3675 63.8168 20.4378 63.2231 19.2346C62.6372 18.0315 62.3364 16.637 62.3208 15.0511V13.5628C62.3208 10.9925 62.9184 9.00027 64.1137 7.58621C65.3168 6.17215 67.0043 5.46512 69.1762 5.46512C70.9575 5.46512 72.3911 5.92215 73.477 6.83621C74.5629 7.74246 75.227 9.03152 75.4692 10.7034H73.2192C72.7973 8.44559 71.4536 7.31668 69.1879 7.31668C67.6801 7.31668 66.5356 7.84793 65.7543 8.91043C64.9809 9.96512 64.5903 11.4964 64.5825 13.5042V14.8987C64.5825 16.8128 65.02 18.3362 65.895 19.469C66.77 20.594 67.9536 21.1565 69.4458 21.1565C70.2895 21.1565 71.0278 21.0628 71.6606 20.8753C72.2934 20.6878 72.8168 20.3714 73.2309 19.9261V16.094H69.2817V14.2659H75.4692V20.5237ZM85.4887 15.8596H81.4809V22.762H79.2192V5.69949H84.8676C86.7895 5.69949 88.2661 6.13699 89.2973 7.01199C90.3364 7.88699 90.8559 9.16043 90.8559 10.8323C90.8559 11.8948 90.5668 12.8206 89.9887 13.6096C89.4184 14.3987 88.6215 14.9886 87.5981 15.3792L91.6059 22.6214V22.762H89.1918L85.4887 15.8596ZM81.4809 14.0198H84.9379C86.0551 14.0198 86.9418 13.7307 87.5981 13.1526C88.2622 12.5745 88.5942 11.8011 88.5942 10.8323C88.5942 9.77762 88.2778 8.96902 87.645 8.40652C87.02 7.84402 86.1137 7.55887 84.9262 7.55106H81.4809V14.0198ZM103.442 18.3089H96.2934L94.6879 22.762H92.3676L98.8833 5.69949H100.852L107.379 22.762H105.071L103.442 18.3089ZM96.9731 16.4573H102.774L99.8676 8.47684L96.9731 16.4573ZM111.926 16.0823V22.762H109.676V5.69949H115.969C117.836 5.69949 119.297 6.17606 120.352 7.12918C121.415 8.08231 121.946 9.34402 121.946 10.9143C121.946 12.5706 121.426 13.8479 120.387 14.7464C119.356 15.637 117.875 16.0823 115.946 16.0823H111.926ZM111.926 14.2425H115.969C117.172 14.2425 118.094 13.9612 118.735 13.3987C119.375 12.8284 119.696 12.0081 119.696 10.9378C119.696 9.92215 119.375 9.10965 118.735 8.50027C118.094 7.8909 117.215 7.57449 116.098 7.55106H111.926V14.2425ZM137.93 22.762H135.668V14.8753H127.067V22.762H124.817V5.69949H127.067V13.0354H135.668V5.69949H137.93V22.762ZM146.801 14.2659L151.254 5.69949H153.809L147.926 16.3987V22.762H145.676V16.3987L139.793 5.69949H142.372L146.801 14.2659Z" fill="black"/>
<line x1="6.32766" y1="29.512" x2="280.328" y2="28.512" stroke="black" stroke-width="0.5"/>
<path d="M1.54937 123.875C1.54937 123.659 1.61392 123.487 1.74304 123.358C1.8865 123.229 2.05148 123.165 2.23797 123.165H8.09114C8.29198 123.165 8.44262 123.229 8.54304 123.358C8.64346 123.473 8.69367 123.609 8.69367 123.767C8.69367 123.925 8.64346 124.068 8.54304 124.197C8.44262 124.312 8.29198 124.37 8.09114 124.37H3.01266V128.243H7.87595C8.07679 128.243 8.22743 128.308 8.32785 128.437C8.44262 128.551 8.5 128.688 8.5 128.846C8.5 128.989 8.44262 129.125 8.32785 129.254C8.22743 129.384 8.07679 129.448 7.87595 129.448H3.01266V134.311C3.01266 134.641 2.85485 134.857 2.53924 134.957C2.45316 134.986 2.3384 135 2.19494 135C2.06582 135 1.92236 134.943 1.76456 134.828C1.6211 134.713 1.54937 134.541 1.54937 134.311V123.875ZM10.2394 130.911C10.2394 130.395 10.3183 129.871 10.4761 129.341C10.6483 128.81 10.9065 128.343 11.2508 127.942C11.9968 127.038 13.0297 126.586 14.3496 126.586C15.6407 126.586 16.6736 127.038 17.4483 127.942C18.1225 128.731 18.4597 129.714 18.4597 130.89C18.4597 132.052 18.1225 133.035 17.4483 133.838C16.6879 134.727 15.655 135.172 14.3496 135.172C13.0154 135.172 11.9825 134.727 11.2508 133.838C10.5766 133.02 10.2394 132.045 10.2394 130.911ZM11.6597 130.911C11.6597 131.256 11.7099 131.622 11.8103 132.009C11.9107 132.396 12.0685 132.748 12.2837 133.063C12.7858 133.795 13.4744 134.161 14.3496 134.161C15.239 134.161 15.9276 133.795 16.4154 133.063C16.8171 132.446 17.0179 131.722 17.0179 130.89C17.0179 130.072 16.8171 129.348 16.4154 128.716C15.942 127.985 15.2533 127.619 14.3496 127.619C13.4601 127.619 12.7715 127.985 12.2837 128.716C11.8677 129.333 11.6597 130.065 11.6597 130.911ZM20.4659 127.382C20.4659 127.181 20.5305 127.031 20.6596 126.93C20.8031 126.83 20.9967 126.78 21.2406 126.78C21.6997 126.78 21.8862 127.232 21.8001 128.135C22.1301 127.447 22.7613 126.966 23.6938 126.694C23.9807 126.622 24.2963 126.586 24.6406 126.586C24.9849 126.586 25.3292 126.651 25.6735 126.78C26.0322 126.895 26.3478 127.081 26.6204 127.339C27.2086 127.899 27.5027 128.724 27.5027 129.814V134.376C27.5027 134.591 27.4309 134.749 27.2875 134.849C27.144 134.95 26.9862 135 26.814 135C26.6562 135 26.5056 134.95 26.3621 134.849C26.233 134.735 26.1685 134.577 26.1685 134.376V129.706C26.1685 128.702 25.774 128.049 24.9849 127.748C24.7554 127.662 24.49 127.619 24.1887 127.619C23.9018 127.619 23.6077 127.676 23.3065 127.791C23.0052 127.906 22.747 128.057 22.5318 128.243C22.044 128.673 21.8001 129.333 21.8001 130.223V134.376C21.8001 134.591 21.7284 134.749 21.5849 134.849C21.4415 134.95 21.2837 135 21.1115 135C20.9394 135 20.7887 134.95 20.6596 134.849C20.5305 134.735 20.4659 134.577 20.4659 134.376V127.382ZM34.4085 134.505C34.4085 134.95 33.8992 135.172 32.8806 135.172C32.106 135.172 31.5536 134.971 31.2237 134.57C30.8794 134.125 30.7072 133.386 30.7072 132.353V127.77H29.7173C29.5452 127.77 29.4089 127.719 29.3085 127.619C29.2224 127.519 29.1794 127.404 29.1794 127.275C29.1794 127.146 29.2224 127.031 29.3085 126.93C29.3946 126.83 29.5308 126.78 29.7173 126.78H30.7503L30.8578 124.434C30.8722 124.262 30.9439 124.126 31.073 124.025C31.2022 123.925 31.3384 123.875 31.4819 123.875C31.8549 123.875 32.0414 124.054 32.0414 124.413V126.78H33.5262C33.6984 126.78 33.8275 126.83 33.9135 126.93C34.014 127.031 34.0642 127.146 34.0642 127.275C34.0642 127.404 34.014 127.519 33.9135 127.619C33.8275 127.719 33.6984 127.77 33.5262 127.77H32.0414V131.622C32.0414 132.669 32.0773 133.314 32.149 133.558C32.2351 133.788 32.3427 133.946 32.4718 134.032C32.6152 134.118 32.8089 134.161 33.0528 134.161L33.9351 134.075C34.0929 134.075 34.2076 134.125 34.2794 134.225C34.3654 134.326 34.4085 134.419 34.4085 134.505ZM36.1587 127.511C36.1587 127.167 36.3309 126.923 36.6752 126.78C36.7899 126.722 36.919 126.694 37.0625 126.694C37.206 126.694 37.3279 126.722 37.4283 126.78C37.5431 126.823 37.6435 126.88 37.7296 126.952C37.8731 127.095 37.9448 127.282 37.9448 127.511C37.9448 127.87 37.7726 128.114 37.4283 128.243C37.3136 128.286 37.1844 128.308 37.041 128.308C36.9119 128.308 36.7899 128.286 36.6752 128.243C36.5604 128.2 36.4671 128.143 36.3954 128.071C36.2376 127.927 36.1587 127.741 36.1587 127.511ZM36.2017 134.505C36.1731 134.405 36.1587 134.304 36.1587 134.204C36.1587 134.103 36.1731 134.003 36.2017 133.903C36.2448 133.802 36.3022 133.716 36.3739 133.644C36.46 133.573 36.5604 133.515 36.6752 133.472C36.7899 133.415 36.919 133.386 37.0625 133.386C37.206 133.386 37.3279 133.415 37.4283 133.472C37.5431 133.515 37.6363 133.573 37.7081 133.644C37.7942 133.716 37.8515 133.802 37.8802 133.903C37.9233 134.003 37.9448 134.103 37.9448 134.204C37.9448 134.304 37.9233 134.405 37.8802 134.505C37.8515 134.591 37.8013 134.67 37.7296 134.742C37.5574 134.914 37.3638 135 37.1486 135C36.9477 135 36.7899 134.978 36.6752 134.935C36.5604 134.892 36.46 134.835 36.3739 134.763C36.3022 134.677 36.2448 134.591 36.2017 134.505ZM52.2777 133.085L56.2157 124.391C56.4022 123.932 56.5815 123.631 56.7537 123.487C56.9976 123.272 57.2414 123.165 57.4853 123.165C57.7436 123.165 57.9444 123.193 58.0879 123.251C58.2313 123.294 58.3533 123.365 58.4537 123.466C58.6832 123.724 58.798 124.054 58.798 124.456V134.354C58.798 134.57 58.7263 134.735 58.5828 134.849C58.4393 134.95 58.2815 135 58.1094 135C57.9372 135 57.7794 134.95 57.636 134.849C57.5068 134.735 57.4423 134.57 57.4423 134.354V124.606L53.16 134.096C52.9879 134.512 52.6866 134.72 52.2562 134.72C51.8689 134.72 51.5748 134.512 51.3739 134.096L47.1132 124.671V134.354C47.1132 134.57 47.0414 134.735 46.898 134.849C46.7545 134.95 46.5967 135 46.4246 135C46.2524 135 46.0946 134.95 45.9511 134.849C45.822 134.735 45.7575 134.57 45.7575 134.354V124.456C45.7575 123.81 45.9942 123.408 46.4676 123.251C46.6111 123.193 46.7617 123.165 46.9195 123.165C47.0917 123.165 47.2423 123.186 47.3714 123.229C47.5149 123.258 47.644 123.322 47.7587 123.423C47.9452 123.566 48.1604 123.896 48.4043 124.413L52.2347 133.085H52.2777ZM65.5494 129.986L66.4962 130.008V129.297C66.4962 128.178 65.865 127.619 64.6025 127.619C64.0143 127.619 63.5911 127.669 63.3329 127.77C63.0316 127.884 62.7447 128.021 62.4721 128.178C62.1996 128.322 61.9987 128.394 61.8696 128.394C61.7548 128.394 61.6472 128.351 61.5468 128.265C61.4607 128.164 61.4177 128.049 61.4177 127.92C61.4177 127.791 61.4751 127.676 61.5899 127.576C62.2785 126.916 63.297 126.586 64.6456 126.586C66.1519 126.586 67.1202 127.103 67.5506 128.135C67.7084 128.494 67.7873 128.917 67.7873 129.405L67.7658 134.419C67.7658 134.62 67.7013 134.77 67.5721 134.871C67.443 134.957 67.2924 135 67.1202 135C66.9624 135 66.819 134.957 66.6899 134.871C66.5607 134.77 66.4962 134.627 66.4962 134.441V133.666C66.1519 134.397 65.5278 134.871 64.624 135.086C64.3371 135.143 64.0215 135.172 63.6772 135.172C63.3472 135.172 63.0101 135.115 62.6658 135C62.3215 134.9 62.0202 134.742 61.762 134.527C61.2169 134.096 60.9443 133.494 60.9443 132.719C60.9443 130.897 62.4793 129.986 65.5494 129.986ZM66.4962 130.976C66.2523 130.99 65.9726 130.997 65.657 130.997C65.3557 130.997 65.0472 131.005 64.7316 131.019C64.4304 131.033 64.1291 131.069 63.8278 131.127C63.5409 131.184 63.2827 131.27 63.0532 131.385C62.5367 131.672 62.2785 132.102 62.2785 132.676C62.2785 133.135 62.4578 133.508 62.8164 133.795C63.1034 134.01 63.5194 134.132 64.0645 134.161C64.7245 134.161 65.284 133.953 65.743 133.537C66.2164 133.121 66.4675 132.511 66.4962 131.708V130.976ZM70.3038 127.382C70.3038 127.181 70.3684 127.031 70.4975 126.93C70.641 126.83 70.8346 126.78 71.0785 126.78C71.5376 126.78 71.7241 127.232 71.638 128.135C71.968 127.447 72.5992 126.966 73.5317 126.694C73.8186 126.622 74.1342 126.586 74.4785 126.586C74.8228 126.586 75.1671 126.651 75.5114 126.78C75.8701 126.895 76.1857 127.081 76.4583 127.339C77.0465 127.899 77.3405 128.724 77.3405 129.814V134.376C77.3405 134.591 77.2688 134.749 77.1254 134.849C76.9819 134.95 76.8241 135 76.6519 135C76.4941 135 76.3435 134.95 76.2 134.849C76.0709 134.735 76.0064 134.577 76.0064 134.376V129.706C76.0064 128.702 75.6119 128.049 74.8228 127.748C74.5933 127.662 74.3279 127.619 74.0266 127.619C73.7397 127.619 73.4456 127.676 73.1443 127.791C72.8431 127.906 72.5848 128.057 72.3697 128.243C71.8819 128.673 71.638 129.333 71.638 130.223V134.376C71.638 134.591 71.5663 134.749 71.4228 134.849C71.2794 134.95 71.1216 135 70.9494 135C70.7773 135 70.6266 134.95 70.4975 134.849C70.3684 134.735 70.3038 134.577 70.3038 134.376V127.382ZM86.4628 135C86.0611 135 85.8316 134.799 85.7742 134.397V133.623C85.3869 134.182 84.9493 134.584 84.4616 134.828C83.9738 135.057 83.4215 135.172 82.8046 135.172C82.2021 135.172 81.6784 135.05 81.2337 134.806C80.8033 134.562 80.4519 134.24 80.1793 133.838C79.6341 133.006 79.3616 132.009 79.3616 130.847C79.3616 129.656 79.6413 128.673 80.2008 127.899C80.8033 127.024 81.6856 126.586 82.8476 126.586C83.7658 126.586 84.562 126.866 85.2362 127.425C85.4514 127.612 85.6308 127.834 85.7742 128.092V123.767C85.7742 123.566 85.8388 123.416 85.9679 123.315C86.1114 123.215 86.2692 123.165 86.4413 123.165C86.6135 123.165 86.7641 123.222 86.8932 123.337C87.0367 123.437 87.1084 123.581 87.1084 123.767V134.376C87.1084 134.591 87.0367 134.749 86.8932 134.849C86.7641 134.95 86.6206 135 86.4628 135ZM84.4185 127.877C84.0886 127.705 83.6869 127.619 83.2135 127.619C82.7544 127.619 82.367 127.712 82.0514 127.899C81.7358 128.085 81.4848 128.329 81.2983 128.63C80.9396 129.204 80.7603 129.922 80.7603 130.782C80.7603 132.489 81.2624 133.565 82.2666 134.01C82.4962 134.111 82.8189 134.161 83.235 134.161C83.651 134.161 84.0312 134.068 84.3755 133.881C84.7198 133.695 84.9924 133.451 85.1932 133.149C85.5662 132.576 85.7527 131.772 85.7527 130.739C85.7527 129.305 85.308 128.351 84.4185 127.877ZM93.44 129.986L94.3868 130.008V129.297C94.3868 128.178 93.7556 127.619 92.4931 127.619C91.905 127.619 91.4818 127.669 91.2235 127.77C90.9223 127.884 90.6353 128.021 90.3628 128.178C90.0902 128.322 89.8893 128.394 89.7602 128.394C89.6455 128.394 89.5379 128.351 89.4375 128.265C89.3514 128.164 89.3083 128.049 89.3083 127.92C89.3083 127.791 89.3657 127.676 89.4805 127.576C90.1691 126.916 91.1877 126.586 92.5362 126.586C94.0425 126.586 95.0109 127.103 95.4412 128.135C95.5991 128.494 95.678 128.917 95.678 129.405L95.6564 134.419C95.6564 134.62 95.5919 134.77 95.4628 134.871C95.3337 134.957 95.183 135 95.0109 135C94.8531 135 94.7096 134.957 94.5805 134.871C94.4514 134.77 94.3868 134.627 94.3868 134.441V133.666C94.0425 134.397 93.4185 134.871 92.5147 135.086C92.2277 135.143 91.9121 135.172 91.5678 135.172C91.2379 135.172 90.9007 135.115 90.5564 135C90.2121 134.9 89.9109 134.742 89.6526 134.527C89.1075 134.096 88.8349 133.494 88.8349 132.719C88.8349 130.897 90.3699 129.986 93.44 129.986ZM94.3868 130.976C94.1429 130.99 93.8632 130.997 93.5476 130.997C93.2463 130.997 92.9379 131.005 92.6223 131.019C92.321 131.033 92.0197 131.069 91.7185 131.127C91.4315 131.184 91.1733 131.27 90.9438 131.385C90.4273 131.672 90.1691 132.102 90.1691 132.676C90.1691 133.135 90.3484 133.508 90.7071 133.795C90.994 134.01 91.41 134.132 91.9552 134.161C92.6151 134.161 93.1746 133.953 93.6337 133.537C94.1071 133.121 94.3581 132.511 94.3868 131.708V130.976ZM98.216 123.832C98.216 123.616 98.2805 123.451 98.4096 123.337C98.5531 123.222 98.6894 123.165 98.8185 123.165C98.9476 123.165 99.048 123.179 99.1198 123.208C99.1915 123.236 99.2561 123.279 99.3134 123.337C99.4569 123.451 99.5286 123.616 99.5286 123.832V134.333C99.5286 134.548 99.4569 134.713 99.3134 134.828C99.17 134.943 99.0122 135 98.84 135C98.6822 135 98.5388 134.95 98.4096 134.849C98.2805 134.735 98.216 134.562 98.216 134.333V123.832ZM103.683 123.918C103.683 124.119 103.604 124.298 103.447 124.456C103.289 124.599 103.066 124.671 102.78 124.671C102.493 124.671 102.27 124.599 102.112 124.456C101.955 124.298 101.876 124.119 101.876 123.918C101.876 123.717 101.955 123.538 102.112 123.38C102.27 123.222 102.493 123.143 102.78 123.143C103.066 123.143 103.289 123.222 103.447 123.38C103.604 123.538 103.683 123.717 103.683 123.918ZM102.134 127.447C102.134 127.232 102.199 127.067 102.328 126.952C102.471 126.837 102.607 126.78 102.736 126.78C102.866 126.78 102.966 126.794 103.038 126.823C103.109 126.851 103.174 126.895 103.231 126.952C103.375 127.052 103.447 127.217 103.447 127.447V134.333C103.447 134.548 103.375 134.713 103.231 134.828C103.088 134.943 102.93 135 102.758 135C102.6 135 102.457 134.95 102.328 134.849C102.199 134.735 102.134 134.562 102.134 134.333V127.447Z" fill="black"/>
<path d="M1.87793 227.818C1.87793 227.602 1.94249 227.43 2.07161 227.301C2.21507 227.172 2.38004 227.107 2.56654 227.107H8.41971C8.62055 227.107 8.77118 227.172 8.87161 227.301C8.97203 227.416 9.02224 227.552 9.02224 227.71C9.02224 227.868 8.97203 228.011 8.87161 228.14C8.77118 228.255 8.62055 228.312 8.41971 228.312H3.34123V232.186H8.20452C8.40536 232.186 8.55599 232.25 8.65642 232.38C8.77118 232.494 8.82857 232.631 8.82857 232.788C8.82857 232.932 8.77118 233.068 8.65642 233.197C8.55599 233.326 8.40536 233.391 8.20452 233.391H3.34123V238.254C3.34123 238.584 3.18342 238.799 2.86781 238.9C2.78173 238.929 2.66696 238.943 2.5235 238.943C2.39439 238.943 2.25093 238.885 2.09312 238.771C1.94966 238.656 1.87793 238.484 1.87793 238.254V227.818ZM10.568 234.854C10.568 234.338 10.6469 233.814 10.8047 233.283C10.9769 232.753 11.2351 232.286 11.5794 231.885C12.3254 230.981 13.3583 230.529 14.6781 230.529C15.9693 230.529 17.0022 230.981 17.7769 231.885C18.4511 232.674 18.7882 233.656 18.7882 234.833C18.7882 235.995 18.4511 236.977 17.7769 237.781C17.0165 238.67 15.9836 239.115 14.6781 239.115C13.3439 239.115 12.311 238.67 11.5794 237.781C10.9051 236.963 10.568 235.988 10.568 234.854ZM11.9882 234.854C11.9882 235.199 12.0385 235.564 12.1389 235.952C12.2393 236.339 12.3971 236.691 12.6123 237.006C13.1144 237.738 13.803 238.104 14.6781 238.104C15.5676 238.104 16.2562 237.738 16.7439 237.006C17.1456 236.389 17.3465 235.665 17.3465 234.833C17.3465 234.015 17.1456 233.291 16.7439 232.659C16.2705 231.928 15.5819 231.562 14.6781 231.562C13.7887 231.562 13.1001 231.928 12.6123 232.659C12.1963 233.276 11.9882 234.008 11.9882 234.854ZM20.7945 231.325C20.7945 231.124 20.8591 230.974 20.9882 230.873C21.1316 230.773 21.3253 230.723 21.5692 230.723C22.0283 230.723 22.2148 231.175 22.1287 232.078C22.4586 231.39 23.0899 230.909 24.0224 230.637C24.3093 230.565 24.6249 230.529 24.9692 230.529C25.3135 230.529 25.6578 230.594 26.0021 230.723C26.3608 230.837 26.6764 231.024 26.9489 231.282C27.5371 231.842 27.8312 232.666 27.8312 233.757V238.319C27.8312 238.534 27.7595 238.692 27.616 238.792C27.4726 238.893 27.3148 238.943 27.1426 238.943C26.9848 238.943 26.8342 238.893 26.6907 238.792C26.5616 238.677 26.497 238.52 26.497 238.319V233.649C26.497 232.645 26.1025 231.992 25.3135 231.691C25.084 231.605 24.8186 231.562 24.5173 231.562C24.2304 231.562 23.9363 231.619 23.635 231.734C23.3338 231.849 23.0755 231.999 22.8603 232.186C22.3726 232.616 22.1287 233.276 22.1287 234.166V238.319C22.1287 238.534 22.057 238.692 21.9135 238.792C21.77 238.893 21.6122 238.943 21.4401 238.943C21.2679 238.943 21.1173 238.893 20.9882 238.792C20.8591 238.677 20.7945 238.52 20.7945 238.319V231.325ZM34.7371 238.448C34.7371 238.893 34.2278 239.115 33.2092 239.115C32.4345 239.115 31.8822 238.914 31.5522 238.512C31.2079 238.068 31.0358 237.329 31.0358 236.296V231.712H30.0459C29.8738 231.712 29.7375 231.662 29.6371 231.562C29.551 231.461 29.5079 231.347 29.5079 231.218C29.5079 231.088 29.551 230.974 29.6371 230.873C29.7231 230.773 29.8594 230.723 30.0459 230.723H31.0788L31.1864 228.377C31.2008 228.205 31.2725 228.069 31.4016 227.968C31.5307 227.868 31.667 227.818 31.8105 227.818C32.1835 227.818 32.37 227.997 32.37 228.356V230.723H33.8548C34.0269 230.723 34.156 230.773 34.2421 230.873C34.3425 230.974 34.3927 231.088 34.3927 231.218C34.3927 231.347 34.3425 231.461 34.2421 231.562C34.156 231.662 34.0269 231.712 33.8548 231.712H32.37V235.564C32.37 236.612 32.4058 237.257 32.4776 237.501C32.5636 237.731 32.6712 237.888 32.8003 237.975C32.9438 238.061 33.1375 238.104 33.3814 238.104L34.2636 238.018C34.4214 238.018 34.5362 238.068 34.6079 238.168C34.694 238.269 34.7371 238.362 34.7371 238.448ZM36.4873 231.454C36.4873 231.11 36.6594 230.866 37.0037 230.723C37.1185 230.665 37.2476 230.637 37.3911 230.637C37.5345 230.637 37.6565 230.665 37.7569 230.723C37.8717 230.766 37.9721 230.823 38.0582 230.895C38.2016 231.038 38.2734 231.225 38.2734 231.454C38.2734 231.813 38.1012 232.057 37.7569 232.186C37.6421 232.229 37.513 232.25 37.3696 232.25C37.2404 232.25 37.1185 232.229 37.0037 232.186C36.889 232.143 36.7957 232.085 36.724 232.014C36.5662 231.87 36.4873 231.684 36.4873 231.454ZM36.5303 238.448C36.5016 238.348 36.4873 238.247 36.4873 238.147C36.4873 238.046 36.5016 237.946 36.5303 237.845C36.5734 237.745 36.6307 237.659 36.7025 237.587C36.7885 237.515 36.889 237.458 37.0037 237.415C37.1185 237.358 37.2476 237.329 37.3911 237.329C37.5345 237.329 37.6565 237.358 37.7569 237.415C37.8717 237.458 37.9649 237.515 38.0366 237.587C38.1227 237.659 38.1801 237.745 38.2088 237.845C38.2518 237.946 38.2734 238.046 38.2734 238.147C38.2734 238.247 38.2518 238.348 38.2088 238.448C38.1801 238.534 38.1299 238.613 38.0582 238.685C37.886 238.857 37.6923 238.943 37.4771 238.943C37.2763 238.943 37.1185 238.921 37.0037 238.878C36.889 238.835 36.7885 238.778 36.7025 238.706C36.6307 238.62 36.5734 238.534 36.5303 238.448ZM52.6063 237.028L56.5443 228.334C56.7308 227.875 56.9101 227.574 57.0822 227.43C57.3261 227.215 57.57 227.107 57.8139 227.107C58.0721 227.107 58.273 227.136 58.4164 227.194C58.5599 227.237 58.6818 227.308 58.7822 227.409C59.0118 227.667 59.1266 227.997 59.1266 228.399V238.297C59.1266 238.512 59.0548 238.677 58.9114 238.792C58.7679 238.893 58.6101 238.943 58.4379 238.943C58.2658 238.943 58.108 238.893 57.9645 238.792C57.8354 238.677 57.7709 238.512 57.7709 238.297V228.549L53.4886 238.039C53.3164 238.455 53.0152 238.663 52.5848 238.663C52.1974 238.663 51.9033 238.455 51.7025 238.039L47.4417 228.614V238.297C47.4417 238.512 47.37 238.677 47.2266 238.792C47.0831 238.893 46.9253 238.943 46.7531 238.943C46.581 238.943 46.4232 238.893 46.2797 238.792C46.1506 238.677 46.086 238.512 46.086 238.297V228.399C46.086 227.753 46.3228 227.351 46.7962 227.194C46.9396 227.136 47.0903 227.107 47.2481 227.107C47.4202 227.107 47.5709 227.129 47.7 227.172C47.8434 227.201 47.9725 227.265 48.0873 227.366C48.2738 227.509 48.489 227.839 48.7329 228.356L52.5633 237.028H52.6063ZM65.8779 233.929L66.8248 233.95V233.24C66.8248 232.121 66.1935 231.562 64.9311 231.562C64.3429 231.562 63.9197 231.612 63.6615 231.712C63.3602 231.827 63.0733 231.964 62.8007 232.121C62.5281 232.265 62.3273 232.337 62.1982 232.337C62.0834 232.337 61.9758 232.294 61.8754 232.207C61.7893 232.107 61.7463 231.992 61.7463 231.863C61.7463 231.734 61.8037 231.619 61.9184 231.519C62.607 230.859 63.6256 230.529 64.9741 230.529C66.4805 230.529 67.4488 231.045 67.8792 232.078C68.037 232.437 68.1159 232.86 68.1159 233.348L68.0944 238.362C68.0944 238.563 68.0298 238.713 67.9007 238.814C67.7716 238.9 67.621 238.943 67.4488 238.943C67.291 238.943 67.1475 238.9 67.0184 238.814C66.8893 238.713 66.8248 238.57 66.8248 238.383V237.609C66.4805 238.34 65.8564 238.814 64.9526 239.029C64.6657 239.086 64.3501 239.115 64.0058 239.115C63.6758 239.115 63.3387 239.058 62.9944 238.943C62.6501 238.842 62.3488 238.685 62.0906 238.469C61.5454 238.039 61.2729 237.437 61.2729 236.662C61.2729 234.84 62.8079 233.929 65.8779 233.929ZM66.8248 234.919C66.5809 234.933 66.3011 234.94 65.9855 234.94C65.6843 234.94 65.3758 234.948 65.0602 234.962C64.7589 234.976 64.4577 235.012 64.1564 235.069C63.8695 235.127 63.6113 235.213 63.3817 235.328C62.8653 235.615 62.607 236.045 62.607 236.619C62.607 237.078 62.7864 237.451 63.145 237.738C63.4319 237.953 63.848 238.075 64.3931 238.104C65.053 238.104 65.6125 237.896 66.0716 237.48C66.545 237.064 66.7961 236.454 66.8248 235.65V234.919ZM70.6324 231.325C70.6324 231.124 70.697 230.974 70.8261 230.873C70.9695 230.773 71.1632 230.723 71.4071 230.723C71.8662 230.723 72.0527 231.175 71.9666 232.078C72.2965 231.39 72.9278 230.909 73.8603 230.637C74.1472 230.565 74.4628 230.529 74.8071 230.529C75.1514 230.529 75.4957 230.594 75.84 230.723C76.1986 230.837 76.5143 231.024 76.7868 231.282C77.375 231.842 77.6691 232.666 77.6691 233.757V238.319C77.6691 238.534 77.5974 238.692 77.4539 238.792C77.3105 238.893 77.1527 238.943 76.9805 238.943C76.8227 238.943 76.6721 238.893 76.5286 238.792C76.3995 238.677 76.3349 238.52 76.3349 238.319V233.649C76.3349 232.645 75.9404 231.992 75.1514 231.691C74.9219 231.605 74.6565 231.562 74.3552 231.562C74.0683 231.562 73.7742 231.619 73.4729 231.734C73.1716 231.849 72.9134 231.999 72.6982 232.186C72.2105 232.616 71.9666 233.276 71.9666 234.166V238.319C71.9666 238.534 71.8948 238.692 71.7514 238.792C71.6079 238.893 71.4501 238.943 71.278 238.943C71.1058 238.943 70.9552 238.893 70.8261 238.792C70.697 238.677 70.6324 238.52 70.6324 238.319V231.325ZM86.7914 238.943C86.3897 238.943 86.1602 238.742 86.1028 238.34V237.566C85.7154 238.125 85.2779 238.527 84.7901 238.771C84.3024 239 83.75 239.115 83.1332 239.115C82.5306 239.115 82.007 238.993 81.5623 238.749C81.1319 238.505 80.7804 238.183 80.5079 237.781C79.9627 236.949 79.6901 235.952 79.6901 234.79C79.6901 233.599 79.9699 232.616 80.5294 231.842C81.1319 230.966 82.0142 230.529 83.1762 230.529C84.0943 230.529 84.8906 230.809 85.5648 231.368C85.78 231.555 85.9593 231.777 86.1028 232.035V227.71C86.1028 227.509 86.1673 227.358 86.2965 227.258C86.4399 227.158 86.5977 227.107 86.7699 227.107C86.942 227.107 87.0927 227.165 87.2218 227.28C87.3652 227.38 87.437 227.523 87.437 227.71V238.319C87.437 238.534 87.3652 238.692 87.2218 238.792C87.0927 238.893 86.9492 238.943 86.7914 238.943ZM84.7471 231.82C84.4171 231.648 84.0154 231.562 83.542 231.562C83.083 231.562 82.6956 231.655 82.38 231.842C82.0644 232.028 81.8133 232.272 81.6268 232.573C81.2682 233.147 81.0889 233.864 81.0889 234.725C81.0889 236.432 81.591 237.508 82.5952 237.953C82.8247 238.053 83.1475 238.104 83.5635 238.104C83.9796 238.104 84.3598 238.01 84.7041 237.824C85.0484 237.637 85.3209 237.394 85.5218 237.092C85.8948 236.518 86.0813 235.715 86.0813 234.682C86.0813 233.248 85.6365 232.294 84.7471 231.82ZM93.7685 233.929L94.7154 233.95V233.24C94.7154 232.121 94.0842 231.562 92.8217 231.562C92.2335 231.562 91.8103 231.612 91.5521 231.712C91.2508 231.827 90.9639 231.964 90.6913 232.121C90.4188 232.265 90.2179 232.337 90.0888 232.337C89.974 232.337 89.8664 232.294 89.766 232.207C89.6799 232.107 89.6369 231.992 89.6369 231.863C89.6369 231.734 89.6943 231.619 89.8091 231.519C90.4977 230.859 91.5162 230.529 92.8648 230.529C94.3711 230.529 95.3394 231.045 95.7698 232.078C95.9276 232.437 96.0065 232.86 96.0065 233.348L95.985 238.362C95.985 238.563 95.9204 238.713 95.7913 238.814C95.6622 238.9 95.5116 238.943 95.3394 238.943C95.1816 238.943 95.0382 238.9 94.9091 238.814C94.7799 238.713 94.7154 238.57 94.7154 238.383V237.609C94.3711 238.34 93.747 238.814 92.8432 239.029C92.5563 239.086 92.2407 239.115 91.8964 239.115C91.5664 239.115 91.2293 239.058 90.885 238.943C90.5407 238.842 90.2394 238.685 89.9812 238.469C89.4361 238.039 89.1635 237.437 89.1635 236.662C89.1635 234.84 90.6985 233.929 93.7685 233.929ZM94.7154 234.919C94.4715 234.933 94.1918 234.94 93.8761 234.94C93.5749 234.94 93.2664 234.948 92.9508 234.962C92.6496 234.976 92.3483 235.012 92.047 235.069C91.7601 235.127 91.5019 235.213 91.2723 235.328C90.7559 235.615 90.4977 236.045 90.4977 236.619C90.4977 237.078 90.677 237.451 91.0356 237.738C91.3226 237.953 91.7386 238.075 92.2837 238.104C92.9437 238.104 93.5031 237.896 93.9622 237.48C94.4356 237.064 94.6867 236.454 94.7154 235.65V234.919ZM98.5445 227.775C98.5445 227.559 98.6091 227.394 98.7382 227.28C98.8817 227.165 99.018 227.107 99.1471 227.107C99.2762 227.107 99.3766 227.122 99.4483 227.15C99.5201 227.179 99.5846 227.222 99.642 227.28C99.7855 227.394 99.8572 227.559 99.8572 227.775V238.276C99.8572 238.491 99.7855 238.656 99.642 238.771C99.4986 238.885 99.3407 238.943 99.1686 238.943C99.0108 238.943 98.8673 238.893 98.7382 238.792C98.6091 238.677 98.5445 238.505 98.5445 238.276V227.775ZM104.012 227.861C104.012 228.061 103.933 228.241 103.775 228.399C103.617 228.542 103.395 228.614 103.108 228.614C102.821 228.614 102.599 228.542 102.441 228.399C102.283 228.241 102.204 228.061 102.204 227.861C102.204 227.66 102.283 227.48 102.441 227.323C102.599 227.165 102.821 227.086 103.108 227.086C103.395 227.086 103.617 227.165 103.775 227.323C103.933 227.48 104.012 227.66 104.012 227.861ZM102.463 231.39C102.463 231.175 102.527 231.01 102.656 230.895C102.8 230.78 102.936 230.723 103.065 230.723C103.194 230.723 103.295 230.737 103.366 230.766C103.438 230.794 103.503 230.837 103.56 230.895C103.703 230.995 103.775 231.16 103.775 231.39V238.276C103.775 238.491 103.703 238.656 103.56 238.771C103.417 238.885 103.259 238.943 103.087 238.943C102.929 238.943 102.785 238.893 102.656 238.792C102.527 238.677 102.463 238.505 102.463 238.276V231.39Z" fill="black"/>
<path d="M1.87793 322.048C1.87793 321.832 1.94249 321.66 2.07161 321.531C2.21507 321.402 2.38004 321.338 2.56654 321.338H8.41971C8.62055 321.338 8.77118 321.402 8.87161 321.531C8.97203 321.646 9.02224 321.782 9.02224 321.94C9.02224 322.098 8.97203 322.241 8.87161 322.37C8.77118 322.485 8.62055 322.543 8.41971 322.543H3.34123V326.416H8.20452C8.40536 326.416 8.55599 326.481 8.65642 326.61C8.77118 326.724 8.82857 326.861 8.82857 327.019C8.82857 327.162 8.77118 327.298 8.65642 327.427C8.55599 327.557 8.40536 327.621 8.20452 327.621H3.34123V332.484C3.34123 332.814 3.18342 333.03 2.86781 333.13C2.78173 333.159 2.66696 333.173 2.5235 333.173C2.39439 333.173 2.25093 333.116 2.09312 333.001C1.94966 332.886 1.87793 332.714 1.87793 332.484V322.048ZM10.568 329.084C10.568 328.568 10.6469 328.044 10.8047 327.514C10.9769 326.983 11.2351 326.516 11.5794 326.115C12.3254 325.211 13.3583 324.759 14.6781 324.759C15.9693 324.759 17.0022 325.211 17.7769 326.115C18.4511 326.904 18.7882 327.887 18.7882 329.063C18.7882 330.225 18.4511 331.208 17.7769 332.011C17.0165 332.9 15.9836 333.345 14.6781 333.345C13.3439 333.345 12.311 332.9 11.5794 332.011C10.9051 331.193 10.568 330.218 10.568 329.084ZM11.9882 329.084C11.9882 329.429 12.0385 329.795 12.1389 330.182C12.2393 330.569 12.3971 330.921 12.6123 331.236C13.1144 331.968 13.803 332.334 14.6781 332.334C15.5676 332.334 16.2562 331.968 16.7439 331.236C17.1456 330.619 17.3465 329.895 17.3465 329.063C17.3465 328.245 17.1456 327.521 16.7439 326.889C16.2705 326.158 15.5819 325.792 14.6781 325.792C13.7887 325.792 13.1001 326.158 12.6123 326.889C12.1963 327.506 11.9882 328.238 11.9882 329.084ZM20.7945 325.555C20.7945 325.354 20.8591 325.204 20.9882 325.103C21.1316 325.003 21.3253 324.953 21.5692 324.953C22.0283 324.953 22.2148 325.405 22.1287 326.308C22.4586 325.62 23.0899 325.139 24.0224 324.867C24.3093 324.795 24.6249 324.759 24.9692 324.759C25.3135 324.759 25.6578 324.824 26.0021 324.953C26.3608 325.068 26.6764 325.254 26.9489 325.512C27.5371 326.072 27.8312 326.897 27.8312 327.987V332.549C27.8312 332.764 27.7595 332.922 27.616 333.022C27.4726 333.123 27.3148 333.173 27.1426 333.173C26.9848 333.173 26.8342 333.123 26.6907 333.022C26.5616 332.908 26.497 332.75 26.497 332.549V327.879C26.497 326.875 26.1025 326.222 25.3135 325.921C25.084 325.835 24.8186 325.792 24.5173 325.792C24.2304 325.792 23.9363 325.849 23.635 325.964C23.3338 326.079 23.0755 326.23 22.8603 326.416C22.3726 326.846 22.1287 327.506 22.1287 328.396V332.549C22.1287 332.764 22.057 332.922 21.9135 333.022C21.77 333.123 21.6122 333.173 21.4401 333.173C21.2679 333.173 21.1173 333.123 20.9882 333.022C20.8591 332.908 20.7945 332.75 20.7945 332.549V325.555ZM34.7371 332.678C34.7371 333.123 34.2278 333.345 33.2092 333.345C32.4345 333.345 31.8822 333.144 31.5522 332.743C31.2079 332.298 31.0358 331.559 31.0358 330.526V325.943H30.0459C29.8738 325.943 29.7375 325.892 29.6371 325.792C29.551 325.692 29.5079 325.577 29.5079 325.448C29.5079 325.319 29.551 325.204 29.6371 325.103C29.7231 325.003 29.8594 324.953 30.0459 324.953H31.0788L31.1864 322.607C31.2008 322.435 31.2725 322.299 31.4016 322.198C31.5307 322.098 31.667 322.048 31.8105 322.048C32.1835 322.048 32.37 322.227 32.37 322.586V324.953H33.8548C34.0269 324.953 34.156 325.003 34.2421 325.103C34.3425 325.204 34.3927 325.319 34.3927 325.448C34.3927 325.577 34.3425 325.692 34.2421 325.792C34.156 325.892 34.0269 325.943 33.8548 325.943H32.37V329.795C32.37 330.842 32.4058 331.487 32.4776 331.731C32.5636 331.961 32.6712 332.119 32.8003 332.205C32.9438 332.291 33.1375 332.334 33.3814 332.334L34.2636 332.248C34.4214 332.248 34.5362 332.298 34.6079 332.398C34.694 332.499 34.7371 332.592 34.7371 332.678ZM36.4873 325.684C36.4873 325.34 36.6594 325.096 37.0037 324.953C37.1185 324.895 37.2476 324.867 37.3911 324.867C37.5345 324.867 37.6565 324.895 37.7569 324.953C37.8717 324.996 37.9721 325.053 38.0582 325.125C38.2016 325.268 38.2734 325.455 38.2734 325.684C38.2734 326.043 38.1012 326.287 37.7569 326.416C37.6421 326.459 37.513 326.481 37.3696 326.481C37.2404 326.481 37.1185 326.459 37.0037 326.416C36.889 326.373 36.7957 326.316 36.724 326.244C36.5662 326.1 36.4873 325.914 36.4873 325.684ZM36.5303 332.678C36.5016 332.578 36.4873 332.477 36.4873 332.377C36.4873 332.276 36.5016 332.176 36.5303 332.076C36.5734 331.975 36.6307 331.889 36.7025 331.817C36.7885 331.746 36.889 331.688 37.0037 331.645C37.1185 331.588 37.2476 331.559 37.3911 331.559C37.5345 331.559 37.6565 331.588 37.7569 331.645C37.8717 331.688 37.9649 331.746 38.0366 331.817C38.1227 331.889 38.1801 331.975 38.2088 332.076C38.2518 332.176 38.2734 332.276 38.2734 332.377C38.2734 332.477 38.2518 332.578 38.2088 332.678C38.1801 332.764 38.1299 332.843 38.0582 332.915C37.886 333.087 37.6923 333.173 37.4771 333.173C37.2763 333.173 37.1185 333.151 37.0037 333.108C36.889 333.065 36.7885 333.008 36.7025 332.936C36.6307 332.85 36.5734 332.764 36.5303 332.678ZM52.6063 331.258L56.5443 322.564C56.7308 322.105 56.9101 321.804 57.0822 321.66C57.3261 321.445 57.57 321.338 57.8139 321.338C58.0721 321.338 58.273 321.366 58.4164 321.424C58.5599 321.467 58.6818 321.538 58.7822 321.639C59.0118 321.897 59.1266 322.227 59.1266 322.629V332.527C59.1266 332.743 59.0548 332.908 58.9114 333.022C58.7679 333.123 58.6101 333.173 58.4379 333.173C58.2658 333.173 58.108 333.123 57.9645 333.022C57.8354 332.908 57.7709 332.743 57.7709 332.527V322.779L53.4886 332.269C53.3164 332.685 53.0152 332.893 52.5848 332.893C52.1974 332.893 51.9033 332.685 51.7025 332.269L47.4417 322.844V332.527C47.4417 332.743 47.37 332.908 47.2266 333.022C47.0831 333.123 46.9253 333.173 46.7531 333.173C46.581 333.173 46.4232 333.123 46.2797 333.022C46.1506 332.908 46.086 332.743 46.086 332.527V322.629C46.086 321.983 46.3228 321.581 46.7962 321.424C46.9396 321.366 47.0903 321.338 47.2481 321.338C47.4202 321.338 47.5709 321.359 47.7 321.402C47.8434 321.431 47.9725 321.495 48.0873 321.596C48.2738 321.739 48.489 322.069 48.7329 322.586L52.5633 331.258H52.6063ZM65.8779 328.159L66.8248 328.181V327.47C66.8248 326.351 66.1935 325.792 64.9311 325.792C64.3429 325.792 63.9197 325.842 63.6615 325.943C63.3602 326.057 63.0733 326.194 62.8007 326.351C62.5281 326.495 62.3273 326.567 62.1982 326.567C62.0834 326.567 61.9758 326.524 61.8754 326.438C61.7893 326.337 61.7463 326.222 61.7463 326.093C61.7463 325.964 61.8037 325.849 61.9184 325.749C62.607 325.089 63.6256 324.759 64.9741 324.759C66.4805 324.759 67.4488 325.276 67.8792 326.308C68.037 326.667 68.1159 327.09 68.1159 327.578L68.0944 332.592C68.0944 332.793 68.0298 332.943 67.9007 333.044C67.7716 333.13 67.621 333.173 67.4488 333.173C67.291 333.173 67.1475 333.13 67.0184 333.044C66.8893 332.943 66.8248 332.8 66.8248 332.614V331.839C66.4805 332.57 65.8564 333.044 64.9526 333.259C64.6657 333.316 64.3501 333.345 64.0058 333.345C63.6758 333.345 63.3387 333.288 62.9944 333.173C62.6501 333.073 62.3488 332.915 62.0906 332.7C61.5454 332.269 61.2729 331.667 61.2729 330.892C61.2729 329.07 62.8079 328.159 65.8779 328.159ZM66.8248 329.149C66.5809 329.163 66.3011 329.17 65.9855 329.17C65.6843 329.17 65.3758 329.178 65.0602 329.192C64.7589 329.206 64.4577 329.242 64.1564 329.3C63.8695 329.357 63.6113 329.443 63.3817 329.558C62.8653 329.845 62.607 330.275 62.607 330.849C62.607 331.308 62.7864 331.681 63.145 331.968C63.4319 332.183 63.848 332.305 64.3931 332.334C65.053 332.334 65.6125 332.126 66.0716 331.71C66.545 331.294 66.7961 330.684 66.8248 329.881V329.149ZM70.6324 325.555C70.6324 325.354 70.697 325.204 70.8261 325.103C70.9695 325.003 71.1632 324.953 71.4071 324.953C71.8662 324.953 72.0527 325.405 71.9666 326.308C72.2965 325.62 72.9278 325.139 73.8603 324.867C74.1472 324.795 74.4628 324.759 74.8071 324.759C75.1514 324.759 75.4957 324.824 75.84 324.953C76.1986 325.068 76.5143 325.254 76.7868 325.512C77.375 326.072 77.6691 326.897 77.6691 327.987V332.549C77.6691 332.764 77.5974 332.922 77.4539 333.022C77.3105 333.123 77.1527 333.173 76.9805 333.173C76.8227 333.173 76.6721 333.123 76.5286 333.022C76.3995 332.908 76.3349 332.75 76.3349 332.549V327.879C76.3349 326.875 75.9404 326.222 75.1514 325.921C74.9219 325.835 74.6565 325.792 74.3552 325.792C74.0683 325.792 73.7742 325.849 73.4729 325.964C73.1716 326.079 72.9134 326.23 72.6982 326.416C72.2105 326.846 71.9666 327.506 71.9666 328.396V332.549C71.9666 332.764 71.8948 332.922 71.7514 333.022C71.6079 333.123 71.4501 333.173 71.278 333.173C71.1058 333.173 70.9552 333.123 70.8261 333.022C70.697 332.908 70.6324 332.75 70.6324 332.549V325.555ZM86.7914 333.173C86.3897 333.173 86.1602 332.972 86.1028 332.57V331.796C85.7154 332.355 85.2779 332.757 84.7901 333.001C84.3024 333.23 83.75 333.345 83.1332 333.345C82.5306 333.345 82.007 333.223 81.5623 332.979C81.1319 332.735 80.7804 332.413 80.5079 332.011C79.9627 331.179 79.6901 330.182 79.6901 329.02C79.6901 327.829 79.9699 326.846 80.5294 326.072C81.1319 325.197 82.0142 324.759 83.1762 324.759C84.0943 324.759 84.8906 325.039 85.5648 325.598C85.78 325.785 85.9593 326.007 86.1028 326.265V321.94C86.1028 321.739 86.1673 321.589 86.2965 321.488C86.4399 321.388 86.5977 321.338 86.7699 321.338C86.942 321.338 87.0927 321.395 87.2218 321.51C87.3652 321.61 87.437 321.754 87.437 321.94V332.549C87.437 332.764 87.3652 332.922 87.2218 333.022C87.0927 333.123 86.9492 333.173 86.7914 333.173ZM84.7471 326.05C84.4171 325.878 84.0154 325.792 83.542 325.792C83.083 325.792 82.6956 325.885 82.38 326.072C82.0644 326.258 81.8133 326.502 81.6268 326.803C81.2682 327.377 81.0889 328.095 81.0889 328.955C81.0889 330.662 81.591 331.738 82.5952 332.183C82.8247 332.284 83.1475 332.334 83.5635 332.334C83.9796 332.334 84.3598 332.241 84.7041 332.054C85.0484 331.868 85.3209 331.624 85.5218 331.322C85.8948 330.749 86.0813 329.945 86.0813 328.912C86.0813 327.478 85.6365 326.524 84.7471 326.05ZM93.7685 328.159L94.7154 328.181V327.47C94.7154 326.351 94.0842 325.792 92.8217 325.792C92.2335 325.792 91.8103 325.842 91.5521 325.943C91.2508 326.057 90.9639 326.194 90.6913 326.351C90.4188 326.495 90.2179 326.567 90.0888 326.567C89.974 326.567 89.8664 326.524 89.766 326.438C89.6799 326.337 89.6369 326.222 89.6369 326.093C89.6369 325.964 89.6943 325.849 89.8091 325.749C90.4977 325.089 91.5162 324.759 92.8648 324.759C94.3711 324.759 95.3394 325.276 95.7698 326.308C95.9276 326.667 96.0065 327.09 96.0065 327.578L95.985 332.592C95.985 332.793 95.9204 332.943 95.7913 333.044C95.6622 333.13 95.5116 333.173 95.3394 333.173C95.1816 333.173 95.0382 333.13 94.9091 333.044C94.7799 332.943 94.7154 332.8 94.7154 332.614V331.839C94.3711 332.57 93.747 333.044 92.8432 333.259C92.5563 333.316 92.2407 333.345 91.8964 333.345C91.5664 333.345 91.2293 333.288 90.885 333.173C90.5407 333.073 90.2394 332.915 89.9812 332.7C89.4361 332.269 89.1635 331.667 89.1635 330.892C89.1635 329.07 90.6985 328.159 93.7685 328.159ZM94.7154 329.149C94.4715 329.163 94.1918 329.17 93.8761 329.17C93.5749 329.17 93.2664 329.178 92.9508 329.192C92.6496 329.206 92.3483 329.242 92.047 329.3C91.7601 329.357 91.5019 329.443 91.2723 329.558C90.7559 329.845 90.4977 330.275 90.4977 330.849C90.4977 331.308 90.677 331.681 91.0356 331.968C91.3226 332.183 91.7386 332.305 92.2837 332.334C92.9437 332.334 93.5031 332.126 93.9622 331.71C94.4356 331.294 94.6867 330.684 94.7154 329.881V329.149ZM98.5445 322.005C98.5445 321.789 98.6091 321.624 98.7382 321.51C98.8817 321.395 99.018 321.338 99.1471 321.338C99.2762 321.338 99.3766 321.352 99.4483 321.381C99.5201 321.409 99.5846 321.452 99.642 321.51C99.7855 321.624 99.8572 321.789 99.8572 322.005V332.506C99.8572 332.721 99.7855 332.886 99.642 333.001C99.4986 333.116 99.3407 333.173 99.1686 333.173C99.0108 333.173 98.8673 333.123 98.7382 333.022C98.6091 332.908 98.5445 332.735 98.5445 332.506V322.005ZM104.012 322.091C104.012 322.292 103.933 322.471 103.775 322.629C103.617 322.772 103.395 322.844 103.108 322.844C102.821 322.844 102.599 322.772 102.441 322.629C102.283 322.471 102.204 322.292 102.204 322.091C102.204 321.89 102.283 321.711 102.441 321.553C102.599 321.395 102.821 321.316 103.108 321.316C103.395 321.316 103.617 321.395 103.775 321.553C103.933 321.711 104.012 321.89 104.012 322.091ZM102.463 325.62C102.463 325.405 102.527 325.24 102.656 325.125C102.8 325.01 102.936 324.953 103.065 324.953C103.194 324.953 103.295 324.967 103.366 324.996C103.438 325.024 103.503 325.068 103.56 325.125C103.703 325.225 103.775 325.39 103.775 325.62V332.506C103.775 332.721 103.703 332.886 103.56 333.001C103.417 333.116 103.259 333.173 103.087 333.173C102.929 333.173 102.785 333.123 102.656 333.022C102.527 332.908 102.463 332.735 102.463 332.506V325.62Z" fill="black"/>
<path d="M19.7316 71.3949C19.7316 70.6962 20.0658 70.2405 20.7342 70.0278C20.9165 69.9671 21.1595 69.9367 21.4633 69.9367C21.7671 69.9367 22.0709 70.0582 22.3747 70.3013C22.7089 70.5443 22.8759 70.9089 22.8759 71.3949V93.5418C22.8759 94.2405 22.5418 94.6962 21.8734 94.9089C21.6911 94.9696 21.4481 95 21.1443 95C20.8405 95 20.5215 94.8785 20.1873 94.6354C19.8835 94.3924 19.7316 94.0278 19.7316 93.5418V83.2886H6.51646V93.5418C6.51646 94.2405 6.18228 94.6962 5.51392 94.9089C5.33165 94.9696 5.08861 95 4.78481 95C4.48101 95 4.16203 94.8785 3.82785 94.6354C3.52405 94.3924 3.37215 94.0278 3.37215 93.5418V71.3949C3.37215 70.6962 3.70633 70.2405 4.37468 70.0278C4.58734 69.9671 4.83038 69.9367 5.1038 69.9367C5.40759 69.9367 5.71139 70.0582 6.01519 70.3013C6.34937 70.5443 6.51646 70.9089 6.51646 71.3949V80.6911H19.7316V71.3949ZM31.3199 95C30.682 95 30.2111 94.681 29.9073 94.043C29.8161 93.8608 29.7706 93.6785 29.7706 93.4962V71.4405C29.7706 70.8025 30.0592 70.3468 30.6364 70.0734C30.8187 69.9823 31.0161 69.9367 31.2288 69.9367H44.3529C44.7782 69.9367 45.0972 70.0734 45.3098 70.3468C45.5225 70.5899 45.6288 70.8785 45.6288 71.2127C45.6288 71.5468 45.5225 71.8506 45.3098 72.1241C45.0972 72.3671 44.7782 72.4886 44.3529 72.4886H32.8237V80.8278H43.7605C44.2161 80.8278 44.5503 80.9646 44.763 81.238C44.9756 81.481 45.082 81.7696 45.082 82.1038C45.082 82.4076 44.9605 82.6962 44.7174 82.9696C44.5048 83.243 44.1858 83.3797 43.7605 83.3797H32.8237V92.4481H44.8086C45.2339 92.4481 45.5529 92.5848 45.7655 92.8582C46.0086 93.1013 46.1301 93.3899 46.1301 93.7241C46.1301 94.0582 46.0237 94.362 45.8111 94.6354C45.5984 94.8785 45.2643 95 44.8086 95H31.3199ZM71.8186 93.0861C71.8794 93.2987 71.9098 93.4962 71.9098 93.6785C71.9098 93.8304 71.849 93.9975 71.7275 94.1797C71.6363 94.362 71.5148 94.5139 71.3629 94.6354C71.0591 94.8785 70.7249 95 70.3604 95C69.6313 95 69.1452 94.6962 68.9022 94.0886L66.6692 88.438H54.2287L51.9958 94.0886C51.7832 94.6962 51.3579 95 50.7199 95C50.0515 95 49.5806 94.7266 49.3072 94.1797C49.2161 93.9975 49.1705 93.8304 49.1705 93.6785C49.1705 93.4962 49.2009 93.2987 49.2616 93.0861L57.6009 72.6709C58.1781 71.0911 58.8768 70.2101 59.6971 70.0278C59.9401 69.9671 60.2135 69.9367 60.5173 69.9367C61.1553 69.9367 61.6262 70.0582 61.93 70.3013C62.5072 70.8177 62.9933 71.6076 63.3882 72.6709L71.8186 93.0861ZM55.1401 86.0684H65.8034L60.4718 72.5342L55.1401 86.0684ZM77.432 95C76.7332 95 76.2623 94.6962 76.0193 94.0886C75.9282 93.9063 75.8826 93.7089 75.8826 93.4962V71.4405C75.8826 70.7418 76.2016 70.2709 76.8395 70.0278C77.0218 69.9671 77.2193 69.9367 77.432 69.9367H83.4016C90.0547 69.9367 94.2471 72.3215 95.9788 77.0911C96.556 78.6709 96.8446 80.4937 96.8446 82.5595C96.8446 84.5949 96.5408 86.3873 95.9332 87.9367C95.356 89.4861 94.4902 90.7772 93.3357 91.8101C90.9965 93.9367 87.7155 95 83.4927 95H77.432ZM78.9813 92.5392H83.8117C87.1231 92.5392 89.599 91.6278 91.2395 89.8051C92.7585 88.1646 93.518 85.719 93.518 82.4684C93.518 79.1266 92.5763 76.5899 90.6927 74.8582C88.9611 73.2177 86.394 72.3975 82.9914 72.3975H78.9813V92.5392ZM104.058 95C103.42 95 102.949 94.681 102.646 94.043C102.554 93.8608 102.509 93.6785 102.509 93.4962V71.4405C102.509 70.8025 102.797 70.3468 103.375 70.0734C103.557 69.9823 103.754 69.9367 103.967 69.9367H117.091C117.516 69.9367 117.835 70.0734 118.048 70.3468C118.261 70.5899 118.367 70.8785 118.367 71.2127C118.367 71.5468 118.261 71.8506 118.048 72.1241C117.835 72.3671 117.516 72.4886 117.091 72.4886H105.562V80.8278H116.499C116.954 80.8278 117.289 80.9646 117.501 81.238C117.714 81.481 117.82 81.7696 117.82 82.1038C117.82 82.4076 117.699 82.6962 117.456 82.9696C117.243 83.243 116.924 83.3797 116.499 83.3797H105.562V92.4481H117.547C117.972 92.4481 118.291 92.5848 118.504 92.8582C118.747 93.1013 118.868 93.3899 118.868 93.7241C118.868 94.0582 118.762 94.362 118.549 94.6354C118.337 94.8785 118.003 95 117.547 95H104.058ZM124.552 71.4405C124.552 71.0456 124.658 70.7266 124.871 70.4835C125.266 70.119 125.676 69.9367 126.101 69.9367H133.666C137.676 69.9367 140.364 71.0304 141.732 73.2177C142.278 74.038 142.552 75.1316 142.552 76.4987C142.552 77.8658 142.096 79.0203 141.185 79.962C140.304 80.9038 139.043 81.557 137.402 81.9215V82.0127C139.013 82.2557 140.152 82.8481 140.82 83.7899C141.337 84.6101 141.671 85.6582 141.823 86.9342C142.157 89.7595 142.37 91.9316 142.461 93.4506C142.461 93.9671 142.294 94.362 141.959 94.6354C141.656 94.8785 141.306 95 140.911 95C140.516 95 140.152 94.8937 139.818 94.681C139.483 94.438 139.301 94.0734 139.271 93.5873C139.119 92.1595 138.997 90.9139 138.906 89.8506C138.815 88.757 138.709 87.8304 138.587 87.0709C138.466 86.3114 138.299 85.7038 138.086 85.2481C137.904 84.762 137.63 84.3823 137.266 84.1089C136.567 83.6228 135.337 83.3797 133.575 83.3797H127.651V93.5418C127.651 94.2405 127.332 94.6962 126.694 94.9089C126.481 94.9696 126.223 95 125.919 95C125.646 95 125.342 94.8785 125.008 94.6354C124.704 94.3924 124.552 94.0278 124.552 93.5418V71.4405ZM132.253 80.919C135.23 80.919 137.205 80.4481 138.177 79.5063C138.906 78.838 139.271 77.881 139.271 76.6354C139.271 74.843 138.618 73.643 137.311 73.0354C136.4 72.6101 135.094 72.3975 133.392 72.3975H127.651V80.919H132.253ZM161.037 75.8152C160.825 75.9367 160.582 75.9975 160.308 75.9975C160.035 75.9975 159.792 75.8759 159.579 75.6329C159.366 75.3899 159.26 75.162 159.26 74.9494C159.26 74.5241 159.427 74.1747 159.761 73.9013L165.685 70.1646C165.898 70.0127 166.187 69.9367 166.551 69.9367C166.916 69.9367 167.25 70.0582 167.554 70.3013C167.858 70.5443 168.009 70.924 168.009 71.4405V93.5418C168.009 94.2405 167.691 94.6962 167.053 94.9089C166.87 94.9696 166.673 95 166.46 95C166.278 95 166.096 94.9696 165.913 94.9089C165.731 94.8481 165.564 94.757 165.412 94.6354C165.108 94.3924 164.956 94.0278 164.956 93.5418V73.2633L161.037 75.8152ZM187.448 86.9797C187.083 86.9797 186.779 86.8582 186.536 86.6152C186.293 86.3722 186.172 86.0835 186.172 85.7494C186.172 85.3848 186.293 85.081 186.536 84.838C186.779 84.5949 187.083 84.4734 187.448 84.4734H194.283C194.648 84.4734 194.952 84.5949 195.195 84.838C195.438 85.081 195.559 85.3848 195.559 85.7494C195.559 86.0835 195.438 86.3722 195.195 86.6152C194.952 86.8582 194.648 86.9797 194.283 86.9797H187.448ZM215.196 81.0101C216.745 81.0101 218.036 80.6456 219.069 79.9165C220.224 79.0962 220.801 77.9873 220.801 76.5899C220.801 75.2835 220.3 74.2354 219.297 73.4456C218.386 72.7165 217.231 72.3519 215.834 72.3519C214.831 72.3519 213.859 72.4886 212.917 72.762C212.006 73.0354 211.353 73.2329 210.958 73.3544C210.593 73.4759 210.274 73.5367 210.001 73.5367C209.758 73.5367 209.515 73.4 209.272 73.1266C209.059 72.8532 208.953 72.5797 208.953 72.3063C208.953 71.6684 209.226 71.243 209.773 71.0304C211.748 70.1494 213.723 69.7089 215.697 69.7089C218.067 69.7089 219.996 70.2709 221.485 71.3949C223.155 72.6101 223.991 74.3266 223.991 76.5443C223.991 77.9722 223.505 79.2025 222.533 80.2354C221.621 81.2076 220.497 81.8152 219.161 82.0582V82.1494C220.74 82.4532 222.001 83.1823 222.943 84.3367C223.915 85.4911 224.401 86.7823 224.401 88.2101C224.401 89.6076 224.158 90.7468 223.672 91.6278C223.216 92.5089 222.593 93.238 221.804 93.8152C220.376 94.8481 218.462 95.3646 216.062 95.3646C214.664 95.3646 213.236 95.1367 211.778 94.681C210.776 94.3772 210.092 94.0582 209.728 93.7241C209.393 93.3595 209.226 93.0405 209.226 92.7671C209.226 92.4633 209.333 92.1899 209.545 91.9468C209.788 91.6734 210.047 91.5367 210.32 91.5367C210.593 91.5367 210.821 91.5823 211.004 91.6734C211.216 91.7342 211.505 91.8405 211.869 91.9924C212.264 92.1443 212.69 92.2658 213.145 92.357C214.239 92.6304 215.181 92.7671 215.971 92.7671C216.791 92.7671 217.52 92.6759 218.158 92.4937C218.796 92.3114 219.343 92.038 219.798 91.6734C220.71 90.9139 221.166 89.8658 221.166 88.5291C221.166 86.9797 220.588 85.7342 219.434 84.7924C218.401 83.9114 217.079 83.4709 215.469 83.4709H214.148C213.753 83.4709 213.449 83.3494 213.236 83.1063C213.054 82.8329 212.963 82.5443 212.963 82.2405C212.963 81.9367 213.054 81.6633 213.236 81.4203C213.449 81.1772 213.753 81.0405 214.148 81.0101H215.196ZM231.636 71.8506C232.396 71.1823 233.307 70.6658 234.371 70.3013C235.434 69.9063 236.831 69.7089 238.563 69.7089C240.295 69.7089 241.95 70.1342 243.53 70.9848C243.895 71.1367 244.077 71.4557 244.077 71.9418C244.077 72.4582 243.849 72.8684 243.393 73.1722C243.241 73.2633 243.09 73.3089 242.938 73.3089C242.816 73.3089 242.543 73.2177 242.117 73.0354C240.841 72.519 239.626 72.2608 238.472 72.2608C237.317 72.2608 236.36 72.4127 235.601 72.7165C234.841 73.0203 234.203 73.4304 233.687 73.9468C233.171 74.4329 232.745 75.0101 232.411 75.6785C232.077 76.3468 231.819 77.0608 231.636 77.8203C231.363 79.1266 231.226 80.6759 231.226 82.4684C231.834 81.2228 232.7 80.2962 233.824 79.6886C234.948 79.0506 236.178 78.7316 237.515 78.7316C238.852 78.7316 239.991 78.9291 240.933 79.3241C241.905 79.719 242.725 80.2658 243.393 80.9646C244.76 82.3924 245.444 84.3519 245.444 86.843C245.444 89.3949 244.715 91.4456 243.257 92.9949C241.798 94.5747 239.778 95.3646 237.196 95.3646C231.059 95.3646 227.991 91.4 227.991 83.4709C227.991 77.8506 229.206 73.9772 231.636 71.8506ZM237.014 92.9038C237.803 92.9038 238.533 92.7671 239.201 92.4937C239.869 92.2203 240.446 91.8405 240.933 91.3544C241.844 90.3519 242.3 88.8937 242.3 86.9797C242.3 84.2152 241.388 82.362 239.565 81.4203C238.958 81.1165 238.198 80.9646 237.287 80.9646C236.406 80.9646 235.601 81.1165 234.872 81.4203C234.173 81.7241 233.581 82.1494 233.095 82.6962C232.122 83.7291 231.636 85.2177 231.636 87.162C231.636 88.8633 232.122 90.2304 233.095 91.2633C234.127 92.357 235.434 92.9038 237.014 92.9038Z" fill="black"/>
<path d="M16.7716 180.329C16.7716 179.747 17.0501 179.367 17.607 179.19C17.7589 179.139 17.9615 179.114 18.2146 179.114C18.4678 179.114 18.721 179.215 18.9741 179.418C19.2526 179.62 19.3919 179.924 19.3919 180.329V198.785C19.3919 199.367 19.1134 199.747 18.5564 199.924C18.4045 199.975 18.202 200 17.9488 200C17.6957 200 17.4298 199.899 17.1514 199.696C16.8982 199.494 16.7716 199.19 16.7716 198.785V190.241H5.75895V198.785C5.75895 199.367 5.48047 199.747 4.9235 199.924C4.77161 199.975 4.56907 200 4.31591 200C4.06274 200 3.79692 199.899 3.51844 199.696C3.26528 199.494 3.13869 199.19 3.13869 198.785V180.329C3.13869 179.747 3.41718 179.367 3.97414 179.19C4.15135 179.139 4.35388 179.114 4.58173 179.114C4.8349 179.114 5.08806 179.215 5.34123 179.418C5.61971 179.62 5.75895 179.924 5.75895 180.329V188.076H16.7716V180.329ZM26.4285 200C25.8969 200 25.5045 199.734 25.2513 199.203C25.1754 199.051 25.1374 198.899 25.1374 198.747V180.367C25.1374 179.835 25.3779 179.456 25.8589 179.228C26.0108 179.152 26.1754 179.114 26.3526 179.114H37.2893C37.6437 179.114 37.9095 179.228 38.0868 179.456C38.264 179.658 38.3526 179.899 38.3526 180.177C38.3526 180.456 38.264 180.709 38.0868 180.937C37.9095 181.139 37.6437 181.241 37.2893 181.241H27.6817V188.19H36.7956C37.1754 188.19 37.4538 188.304 37.6311 188.532C37.8083 188.734 37.8969 188.975 37.8969 189.253C37.8969 189.506 37.7956 189.747 37.5931 189.975C37.4159 190.203 37.15 190.316 36.7956 190.316H27.6817V197.873H37.669C38.0235 197.873 38.2893 197.987 38.4665 198.215C38.669 198.418 38.7703 198.658 38.7703 198.937C38.7703 199.215 38.6817 199.468 38.5045 199.696C38.3273 199.899 38.0488 200 37.669 200H26.4285ZM60.1774 198.405C60.228 198.582 60.2534 198.747 60.2534 198.899C60.2534 199.025 60.2027 199.165 60.1015 199.316C60.0255 199.468 59.9242 199.595 59.7977 199.696C59.5445 199.899 59.266 200 58.9622 200C58.3546 200 57.9496 199.747 57.747 199.241L55.8863 194.532H45.5192L43.6584 199.241C43.4812 199.747 43.1268 200 42.5951 200C42.0382 200 41.6458 199.772 41.4179 199.316C41.342 199.165 41.304 199.025 41.304 198.899C41.304 198.747 41.3293 198.582 41.3799 198.405L48.3293 181.392C48.8103 180.076 49.3926 179.342 50.0761 179.19C50.2787 179.139 50.5065 179.114 50.7597 179.114C51.2913 179.114 51.6837 179.215 51.9369 179.418C52.4179 179.848 52.823 180.506 53.1521 181.392L60.1774 198.405ZM46.2787 192.557H55.1648L50.7217 181.278L46.2787 192.557ZM64.8552 200C64.2729 200 63.8805 199.747 63.678 199.241C63.602 199.089 63.5641 198.924 63.5641 198.747V180.367C63.5641 179.785 63.8299 179.392 64.3615 179.19C64.5134 179.139 64.678 179.114 64.8552 179.114H69.8299C75.3742 179.114 78.8679 181.101 80.3109 185.076C80.7919 186.392 81.0324 187.911 81.0324 189.633C81.0324 191.329 80.7792 192.823 80.2729 194.114C79.7919 195.405 79.0704 196.481 78.1084 197.342C76.159 199.114 73.4248 200 69.9058 200H64.8552ZM66.1463 197.949H70.1716C72.9311 197.949 74.9944 197.19 76.3615 195.671C77.6273 194.304 78.2603 192.266 78.2603 189.557C78.2603 186.772 77.4754 184.658 75.9058 183.215C74.4628 181.848 72.3235 181.165 69.4881 181.165H66.1463V197.949ZM87.0438 200C86.5121 200 86.1197 199.734 85.8665 199.203C85.7906 199.051 85.7526 198.899 85.7526 198.747V180.367C85.7526 179.835 85.9931 179.456 86.4741 179.228C86.626 179.152 86.7906 179.114 86.9678 179.114H97.9045C98.2589 179.114 98.5248 179.228 98.702 179.456C98.8792 179.658 98.9678 179.899 98.9678 180.177C98.9678 180.456 98.8792 180.709 98.702 180.937C98.5248 181.139 98.2589 181.241 97.9045 181.241H88.2969V188.19H97.4108C97.7906 188.19 98.0691 188.304 98.2463 188.532C98.4235 188.734 98.5121 188.975 98.5121 189.253C98.5121 189.506 98.4108 189.747 98.2083 189.975C98.0311 190.203 97.7653 190.316 97.4108 190.316H88.2969V197.873H98.2843C98.6387 197.873 98.9045 197.987 99.0817 198.215C99.2843 198.418 99.3855 198.658 99.3855 198.937C99.3855 199.215 99.2969 199.468 99.1197 199.696C98.9425 199.899 98.664 200 98.2843 200H87.0438ZM104.122 180.367C104.122 180.038 104.21 179.772 104.388 179.57C104.717 179.266 105.058 179.114 105.413 179.114H111.717C115.058 179.114 117.299 180.025 118.438 181.848C118.894 182.532 119.122 183.443 119.122 184.582C119.122 185.722 118.742 186.684 117.983 187.468C117.248 188.253 116.198 188.797 114.831 189.101V189.177C116.172 189.38 117.122 189.873 117.679 190.658C118.109 191.342 118.388 192.215 118.514 193.278C118.793 195.633 118.97 197.443 119.046 198.709C119.046 199.139 118.907 199.468 118.628 199.696C118.375 199.899 118.084 200 117.755 200C117.426 200 117.122 199.911 116.843 199.734C116.565 199.532 116.413 199.228 116.388 198.823C116.261 197.633 116.16 196.595 116.084 195.709C116.008 194.797 115.919 194.025 115.818 193.392C115.717 192.759 115.577 192.253 115.4 191.873C115.248 191.468 115.02 191.152 114.717 190.924C114.134 190.519 113.109 190.316 111.641 190.316H106.704V198.785C106.704 199.367 106.438 199.747 105.907 199.924C105.729 199.975 105.514 200 105.261 200C105.033 200 104.78 199.899 104.502 199.696C104.248 199.494 104.122 199.19 104.122 198.785V180.367ZM110.539 188.266C113.02 188.266 114.666 187.873 115.476 187.089C116.084 186.532 116.388 185.734 116.388 184.696C116.388 183.203 115.843 182.203 114.755 181.696C113.995 181.342 112.907 181.165 111.489 181.165H106.704V188.266H110.539ZM138.438 181.089C138.007 181.089 137.602 181.127 137.223 181.203C136.868 181.253 136.526 181.342 136.197 181.468C135.412 181.772 134.83 182.051 134.45 182.304C134.172 182.456 133.893 182.532 133.615 182.532C133.362 182.532 133.134 182.443 132.931 182.266C132.754 182.089 132.666 181.886 132.666 181.658C132.666 181.43 132.754 181.215 132.931 181.013C133.109 180.785 133.349 180.57 133.653 180.367C133.957 180.165 134.299 179.987 134.678 179.835C135.083 179.658 135.501 179.494 135.931 179.342C136.868 179.063 137.742 178.924 138.552 178.924C139.362 178.924 140.134 179.038 140.868 179.266C141.628 179.468 142.286 179.772 142.843 180.177C144.083 181.089 144.704 182.316 144.704 183.861C144.704 186.418 142.742 189.62 138.817 193.468C138.058 194.228 137.261 195.025 136.425 195.861C135.615 196.671 134.906 197.342 134.299 197.873H143.678C144.033 197.873 144.286 197.987 144.438 198.215C144.615 198.443 144.704 198.696 144.704 198.975C144.704 199.228 144.615 199.468 144.438 199.696C144.261 199.899 144.007 200 143.678 200H133.045C132.438 200 131.982 199.873 131.678 199.62C131.4 199.367 131.261 199.063 131.261 198.709C131.261 198.025 131.59 197.405 132.248 196.848C132.729 196.418 133.336 195.81 134.071 195.025C134.805 194.241 135.526 193.494 136.235 192.785C136.944 192.076 137.64 191.329 138.324 190.544C139.033 189.734 139.666 188.949 140.223 188.19C141.438 186.544 142.045 185.177 142.045 184.089C142.045 183.127 141.666 182.38 140.906 181.848C140.197 181.342 139.374 181.089 138.438 181.089ZM156.535 193.316C156.231 193.316 155.978 193.215 155.776 193.013C155.573 192.81 155.472 192.57 155.472 192.291C155.472 191.987 155.573 191.734 155.776 191.532C155.978 191.329 156.231 191.228 156.535 191.228H162.231C162.535 191.228 162.788 191.329 162.991 191.532C163.193 191.734 163.295 191.987 163.295 192.291C163.295 192.57 163.193 192.81 162.991 193.013C162.788 193.215 162.535 193.316 162.231 193.316H156.535ZM179.659 188.342C180.95 188.342 182.026 188.038 182.886 187.43C183.848 186.747 184.329 185.823 184.329 184.658C184.329 183.57 183.912 182.696 183.076 182.038C182.317 181.43 181.355 181.127 180.19 181.127C179.355 181.127 178.545 181.241 177.76 181.468C177 181.696 176.456 181.861 176.127 181.962C175.823 182.063 175.557 182.114 175.329 182.114C175.127 182.114 174.924 182 174.722 181.772C174.545 181.544 174.456 181.316 174.456 181.089C174.456 180.557 174.684 180.203 175.14 180.025C176.785 179.291 178.431 178.924 180.076 178.924C182.051 178.924 183.659 179.392 184.899 180.329C186.291 181.342 186.988 182.772 186.988 184.62C186.988 185.81 186.583 186.835 185.772 187.696C185.013 188.506 184.076 189.013 182.962 189.215V189.291C184.279 189.544 185.329 190.152 186.114 191.114C186.924 192.076 187.329 193.152 187.329 194.342C187.329 195.506 187.127 196.456 186.722 197.19C186.342 197.924 185.823 198.532 185.165 199.013C183.975 199.873 182.38 200.304 180.38 200.304C179.215 200.304 178.026 200.114 176.81 199.734C175.975 199.481 175.405 199.215 175.102 198.937C174.823 198.633 174.684 198.367 174.684 198.139C174.684 197.886 174.772 197.658 174.95 197.456C175.152 197.228 175.367 197.114 175.595 197.114C175.823 197.114 176.013 197.152 176.165 197.228C176.342 197.278 176.583 197.367 176.886 197.494C177.215 197.62 177.57 197.722 177.95 197.797C178.861 198.025 179.646 198.139 180.304 198.139C180.988 198.139 181.595 198.063 182.127 197.911C182.659 197.759 183.114 197.532 183.494 197.228C184.253 196.595 184.633 195.722 184.633 194.608C184.633 193.316 184.152 192.278 183.19 191.494C182.329 190.759 181.228 190.392 179.886 190.392H178.785C178.456 190.392 178.203 190.291 178.026 190.089C177.874 189.861 177.798 189.62 177.798 189.367C177.798 189.114 177.874 188.886 178.026 188.684C178.203 188.481 178.456 188.367 178.785 188.342H179.659ZM197.574 198.253C200.587 198.253 202.093 195.392 202.093 189.671C202.093 186.228 201.587 183.823 200.574 182.456C199.84 181.494 198.84 181.013 197.574 181.013C194.89 181.013 193.409 183.241 193.131 187.696C193.106 188.304 193.093 188.949 193.093 189.633C193.093 190.291 193.106 190.937 193.131 191.57C193.182 192.177 193.258 192.797 193.359 193.43C193.46 194.063 193.612 194.671 193.815 195.253C194.017 195.81 194.283 196.304 194.612 196.734C195.346 197.747 196.334 198.253 197.574 198.253ZM197.574 178.924C202.384 178.924 204.789 182.506 204.789 189.671C204.789 191.722 204.637 193.291 204.334 194.38C204.03 195.468 203.701 196.354 203.346 197.038C202.992 197.696 202.549 198.266 202.017 198.747C200.878 199.785 199.397 200.304 197.574 200.304C194.941 200.304 193.03 199.215 191.84 197.038C190.878 195.291 190.397 192.835 190.397 189.671C190.397 187.595 190.536 186 190.815 184.886C191.118 183.772 191.447 182.886 191.802 182.228C192.182 181.544 192.637 180.962 193.169 180.481C194.308 179.443 195.777 178.924 197.574 178.924Z" fill="black"/>
<path d="M13.483 278.436C13.483 277.97 13.7058 277.667 14.1514 277.525C14.2729 277.484 14.4349 277.464 14.6374 277.464C14.84 277.464 15.0425 277.545 15.245 277.707C15.4678 277.869 15.5792 278.112 15.5792 278.436V293.201C15.5792 293.667 15.3564 293.97 14.9108 294.112C14.7893 294.153 14.6273 294.173 14.4248 294.173C14.2222 294.173 14.0096 294.092 13.7868 293.93C13.5843 293.768 13.483 293.525 13.483 293.201V286.365H4.67287V293.201C4.67287 293.667 4.45009 293.97 4.00452 294.112C3.883 294.153 3.72097 294.173 3.51844 294.173C3.31591 294.173 3.10325 294.092 2.88047 293.93C2.67793 293.768 2.57667 293.525 2.57667 293.201V278.436C2.57667 277.97 2.79945 277.667 3.24502 277.525C3.3868 277.484 3.54882 277.464 3.7311 277.464C3.93363 277.464 4.13616 277.545 4.33869 277.707C4.56148 277.869 4.67287 278.112 4.67287 278.436V284.634H13.483V278.436ZM21.2085 294.173C20.7832 294.173 20.4693 293.96 20.2668 293.535C20.206 293.414 20.1756 293.292 20.1756 293.17V278.467C20.1756 278.041 20.368 277.738 20.7528 277.555C20.8744 277.495 21.006 277.464 21.1478 277.464H29.8971C30.1807 277.464 30.3933 277.555 30.5351 277.738C30.6769 277.9 30.7478 278.092 30.7478 278.315C30.7478 278.538 30.6769 278.74 30.5351 278.922C30.3933 279.084 30.1807 279.165 29.8971 279.165H22.2111V284.725H29.5022C29.806 284.725 30.0288 284.816 30.1706 284.998C30.3123 285.16 30.3832 285.353 30.3832 285.576C30.3832 285.778 30.3022 285.97 30.1402 286.153C29.9984 286.335 29.7857 286.426 29.5022 286.426H22.2111V292.472H30.2009C30.4845 292.472 30.6971 292.563 30.8389 292.745C31.0009 292.907 31.0819 293.1 31.0819 293.322C31.0819 293.545 31.0111 293.748 30.8693 293.93C30.7275 294.092 30.5047 294.173 30.2009 294.173H21.2085ZM48.2076 292.897C48.2481 293.039 48.2684 293.17 48.2684 293.292C48.2684 293.393 48.2279 293.505 48.1469 293.626C48.0861 293.748 48.0051 293.849 47.9038 293.93C47.7013 294.092 47.4785 294.173 47.2355 294.173C46.7494 294.173 46.4254 293.97 46.2633 293.565L44.7747 289.798H36.4811L34.9925 293.565C34.8507 293.97 34.5671 294.173 34.1418 294.173C33.6962 294.173 33.3823 293.991 33.2 293.626C33.1393 293.505 33.1089 293.393 33.1089 293.292C33.1089 293.17 33.1292 293.039 33.1697 292.897L38.7292 279.287C39.114 278.234 39.5798 277.646 40.1266 277.525C40.2887 277.484 40.4709 277.464 40.6735 277.464C41.0988 277.464 41.4127 277.545 41.6152 277.707C42 278.051 42.3241 278.578 42.5874 279.287L48.2076 292.897ZM37.0887 288.219H44.1975L40.6431 279.196L37.0887 288.219ZM51.9499 294.173C51.484 294.173 51.1701 293.97 51.0081 293.565C50.9473 293.444 50.917 293.312 50.917 293.17V278.467C50.917 278.001 51.1296 277.687 51.5549 277.525C51.6765 277.484 51.8081 277.464 51.9499 277.464H55.9296C60.3651 277.464 63.16 279.054 64.3144 282.234C64.6992 283.287 64.8916 284.502 64.8916 285.879C64.8916 287.236 64.6891 288.431 64.284 289.464C63.8992 290.497 63.322 291.358 62.5524 292.046C60.9929 293.464 58.8056 294.173 55.9904 294.173H51.9499ZM52.9828 292.532H56.203C58.4106 292.532 60.0613 291.925 61.1549 290.71C62.1676 289.616 62.6739 287.986 62.6739 285.819C62.6739 283.591 62.0461 281.9 60.7904 280.745C59.6359 279.651 57.9246 279.105 55.6562 279.105H52.9828V292.532ZM69.7007 294.173C69.2754 294.173 68.9615 293.96 68.7589 293.535C68.6982 293.414 68.6678 293.292 68.6678 293.17V278.467C68.6678 278.041 68.8602 277.738 69.245 277.555C69.3665 277.495 69.4982 277.464 69.64 277.464H78.3893C78.6729 277.464 78.8855 277.555 79.0273 277.738C79.1691 277.9 79.24 278.092 79.24 278.315C79.24 278.538 79.1691 278.74 79.0273 278.922C78.8855 279.084 78.6729 279.165 78.3893 279.165H70.7033V284.725H77.9944C78.2982 284.725 78.521 284.816 78.6627 284.998C78.8045 285.16 78.8754 285.353 78.8754 285.576C78.8754 285.778 78.7944 285.97 78.6324 286.153C78.4906 286.335 78.2779 286.426 77.9944 286.426H70.7033V292.472H78.6931C78.9767 292.472 79.1893 292.563 79.3311 292.745C79.4931 292.907 79.5741 293.1 79.5741 293.322C79.5741 293.545 79.5033 293.748 79.3615 293.93C79.2197 294.092 78.9969 294.173 78.6931 294.173H69.7007ZM83.3631 278.467C83.3631 278.203 83.434 277.991 83.5758 277.829C83.8391 277.586 84.1125 277.464 84.396 277.464H89.4391C92.1125 277.464 93.9049 278.193 94.8163 279.651C95.1808 280.198 95.3631 280.927 95.3631 281.839C95.3631 282.75 95.0593 283.52 94.4517 284.148C93.8644 284.776 93.0239 285.211 91.9302 285.454V285.515C93.0036 285.677 93.7631 286.072 94.2087 286.7C94.553 287.246 94.7758 287.945 94.877 288.796C95.0998 290.679 95.2416 292.127 95.3024 293.14C95.3024 293.484 95.191 293.748 94.9682 293.93C94.7657 294.092 94.5327 294.173 94.2694 294.173C94.0062 294.173 93.7631 294.102 93.5403 293.96C93.3176 293.798 93.196 293.555 93.1758 293.231C93.0745 292.279 92.9935 291.449 92.9327 290.74C92.872 290.011 92.8011 289.393 92.7201 288.887C92.6391 288.381 92.5277 287.976 92.3859 287.672C92.2644 287.348 92.0821 287.095 91.8391 286.912C91.3732 286.588 90.553 286.426 89.3783 286.426H85.4289V293.201C85.4289 293.667 85.2163 293.97 84.791 294.112C84.6492 294.153 84.477 294.173 84.2745 294.173C84.0922 294.173 83.8897 294.092 83.6669 293.93C83.4644 293.768 83.3631 293.525 83.3631 293.201V278.467ZM88.4973 284.786C90.4821 284.786 91.7986 284.472 92.4467 283.844C92.9327 283.398 93.1758 282.76 93.1758 281.93C93.1758 280.735 92.7403 279.935 91.8694 279.53C91.2619 279.246 90.391 279.105 89.2568 279.105H85.4289V284.786H88.4973ZM109.996 284.846C111.029 284.846 111.889 284.603 112.578 284.117C113.348 283.57 113.732 282.831 113.732 281.9C113.732 281.029 113.398 280.33 112.73 279.803C112.122 279.317 111.353 279.074 110.421 279.074C109.753 279.074 109.105 279.165 108.477 279.348C107.869 279.53 107.434 279.662 107.17 279.743C106.927 279.824 106.715 279.864 106.532 279.864C106.37 279.864 106.208 279.773 106.046 279.591C105.905 279.408 105.834 279.226 105.834 279.044C105.834 278.619 106.016 278.335 106.38 278.193C107.697 277.606 109.013 277.312 110.33 277.312C111.91 277.312 113.196 277.687 114.188 278.436C115.302 279.246 115.859 280.391 115.859 281.869C115.859 282.821 115.535 283.641 114.887 284.33C114.279 284.978 113.53 285.383 112.639 285.545V285.606C113.692 285.808 114.532 286.295 115.16 287.064C115.808 287.834 116.132 288.695 116.132 289.646C116.132 290.578 115.97 291.338 115.646 291.925C115.342 292.512 114.927 292.998 114.401 293.383C113.449 294.072 112.173 294.416 110.573 294.416C109.641 294.416 108.689 294.264 107.717 293.96C107.049 293.758 106.593 293.545 106.35 293.322C106.127 293.079 106.016 292.867 106.016 292.684C106.016 292.482 106.087 292.3 106.229 292.138C106.391 291.955 106.563 291.864 106.745 291.864C106.927 291.864 107.079 291.895 107.201 291.955C107.342 291.996 107.535 292.067 107.778 292.168C108.041 292.269 108.325 292.35 108.629 292.411C109.358 292.593 109.986 292.684 110.512 292.684C111.059 292.684 111.545 292.624 111.97 292.502C112.396 292.381 112.76 292.198 113.064 291.955C113.672 291.449 113.975 290.75 113.975 289.859C113.975 288.826 113.591 287.996 112.821 287.368C112.132 286.781 111.251 286.487 110.178 286.487H109.297C109.034 286.487 108.831 286.406 108.689 286.244C108.568 286.062 108.507 285.869 108.507 285.667C108.507 285.464 108.568 285.282 108.689 285.12C108.831 284.958 109.034 284.867 109.297 284.846H109.996ZM125.294 288.826C125.051 288.826 124.848 288.745 124.686 288.583C124.524 288.421 124.443 288.229 124.443 288.006C124.443 287.763 124.524 287.56 124.686 287.398C124.848 287.236 125.051 287.155 125.294 287.155H129.851C130.094 287.155 130.296 287.236 130.458 287.398C130.62 287.56 130.701 287.763 130.701 288.006C130.701 288.229 130.62 288.421 130.458 288.583C130.296 288.745 130.094 288.826 129.851 288.826H125.294ZM144.613 279.044C144.268 279.044 143.944 279.074 143.641 279.135C143.357 279.176 143.084 279.246 142.82 279.348C142.193 279.591 141.727 279.814 141.423 280.016C141.2 280.138 140.977 280.198 140.755 280.198C140.552 280.198 140.37 280.127 140.208 279.986C140.066 279.844 139.995 279.682 139.995 279.5C139.995 279.317 140.066 279.145 140.208 278.983C140.349 278.801 140.542 278.629 140.785 278.467C141.028 278.305 141.301 278.163 141.605 278.041C141.929 277.9 142.263 277.768 142.608 277.646C143.357 277.424 144.056 277.312 144.704 277.312C145.352 277.312 145.97 277.403 146.557 277.586C147.165 277.748 147.691 277.991 148.137 278.315C149.129 279.044 149.625 280.026 149.625 281.262C149.625 283.307 148.056 285.869 144.917 288.948C144.309 289.555 143.671 290.193 143.003 290.862C142.355 291.51 141.787 292.046 141.301 292.472H148.805C149.089 292.472 149.291 292.563 149.413 292.745C149.555 292.927 149.625 293.13 149.625 293.353C149.625 293.555 149.555 293.748 149.413 293.93C149.271 294.092 149.068 294.173 148.805 294.173H140.299C139.813 294.173 139.448 294.072 139.205 293.869C138.982 293.667 138.871 293.424 138.871 293.14C138.871 292.593 139.134 292.097 139.661 291.651C140.046 291.307 140.532 290.821 141.119 290.193C141.706 289.565 142.284 288.968 142.851 288.401C143.418 287.834 143.975 287.236 144.522 286.608C145.089 285.96 145.595 285.332 146.041 284.725C147.013 283.408 147.499 282.315 147.499 281.444C147.499 280.674 147.195 280.077 146.587 279.651C146.02 279.246 145.362 279.044 144.613 279.044ZM158.52 278.406C158.884 277.778 159.441 277.464 160.191 277.464C160.839 277.464 161.284 277.727 161.527 278.254C161.608 278.436 161.649 278.649 161.649 278.892V288.917H163.441C163.705 288.917 163.897 288.998 164.019 289.16C164.16 289.322 164.231 289.505 164.231 289.707C164.231 289.91 164.16 290.092 164.019 290.254C163.897 290.396 163.705 290.467 163.441 290.467H161.649V293.231C161.649 293.515 161.578 293.717 161.436 293.839C161.193 294.062 160.93 294.173 160.646 294.173C160.221 294.173 159.907 293.991 159.705 293.626C159.644 293.525 159.614 293.393 159.614 293.231V290.467H152.869C152.525 290.467 152.252 290.355 152.049 290.132C151.846 289.91 151.745 289.697 151.745 289.495C151.745 289.13 151.816 288.836 151.958 288.614L158.52 278.406ZM153.538 288.917H159.614V279.378L153.538 288.917Z" fill="black"/>
</svg>
